<svg width="512" height="512" viewBox="0 0 512 512" fill="none" xmlns="http://www.w3.org/2000/svg">
<path d="M175.246 319.38L108.121 182.392L40.9998 319.38L26.6318 312.34L100.932 160.69C101.59 159.346 102.613 158.214 103.883 157.422C105.153 156.63 106.619 156.21 108.116 156.21C109.612 156.21 111.079 156.63 112.349 157.422C113.619 158.214 114.641 159.346 115.3 160.69L189.61 312.34L175.246 319.38ZM336.754 319.38L322.386 312.34L396.7 160.69C397.358 159.346 398.381 158.214 399.651 157.422C400.921 156.63 402.387 156.21 403.884 156.21V156.21C405.38 156.21 406.847 156.63 408.117 157.422C409.387 158.214 410.409 159.346 411.068 160.69L485.368 312.34L471 319.38L403.879 182.392L336.754 319.38Z" fill="#FEDB41"/>
<path d="M188.25 311H28.0001C25.8549 311.052 23.8158 311.943 22.3201 313.482C20.8245 315.021 19.9916 317.084 20.0001 319.23C20.0001 364.61 59.5311 401.645 108.12 401.645C156.709 401.645 196.25 364.553 196.25 319.172C196.256 317.032 195.421 314.976 193.924 313.447C192.427 311.918 190.389 311.039 188.25 311V311ZM484 311H323.75C321.605 311.052 319.566 311.943 318.07 313.482C316.574 315.021 315.742 317.084 315.75 319.23C315.75 364.61 355.285 401.645 403.88 401.645C452.475 401.645 492 364.553 492 319.172C492.006 317.032 491.171 314.976 489.674 313.447C488.177 311.918 486.139 311.039 484 311V311Z" fill="#00EFD1"/>
<path d="M446.5 154H264V113H248V154H65.5C63.3783 154 61.3434 154.843 59.8431 156.343C58.3429 157.843 57.5 159.878 57.5 162C57.5 164.122 58.3429 166.157 59.8431 167.657C61.3434 169.157 63.3783 170 65.5 170H248V443H264V170H446.5C448.622 170 450.657 169.157 452.157 167.657C453.657 166.157 454.5 164.122 454.5 162C454.5 159.878 453.657 157.843 452.157 156.343C450.657 154.843 448.622 154 446.5 154Z" fill="#F4B844"/>
<path d="M256 23.02C229.853 23.02 208.58 45.086 208.58 72.21C208.58 99.334 229.853 121.39 256 121.39C282.147 121.39 303.42 99.328 303.42 72.21C303.42 45.092 282.147 23.02 256 23.02Z" fill="#FEDB41"/>
<path d="M256 442.16H376.9V480.98H135.1V442.16H256Z" fill="#00ACEA"/>
</svg>
