<svg width="237" height="283" viewBox="0 0 237 283" fill="none" xmlns="http://www.w3.org/2000/svg">
<path d="M234.737 208.214C229.763 186.64 216.452 167.235 197.055 153.28C177.657 139.325 153.362 131.677 128.279 131.628H107.845C82.761 131.676 58.466 139.324 39.0679 153.279C19.6698 167.234 6.35921 186.639 1.38699 208.214C-0.683248 217.285 -0.433256 226.646 2.11894 235.622C4.67113 244.598 9.46189 252.965 16.1456 260.12C22.8293 267.274 31.2393 273.038 40.7689 276.994C50.2986 280.951 60.7102 283.002 71.2526 283H164.878C175.419 283 185.829 280.947 195.357 276.989C204.885 273.032 213.293 267.268 219.976 260.114C226.658 252.96 231.449 244.594 234.001 235.619C236.554 226.644 236.805 217.284 234.737 208.214Z" fill="#00BBFF"/>
<path d="M118.062 151.372C165.696 151.372 204.312 117.486 204.312 75.686C204.312 33.8858 165.696 0 118.062 0C70.4272 0 31.8118 33.8858 31.8118 75.686C31.8118 117.486 70.4272 151.372 118.062 151.372Z" fill="white"/>
<path d="M118.062 151.372C101.003 151.372 84.3276 146.933 70.1439 138.617C55.9601 130.3 44.9053 118.48 38.3772 104.65C31.8491 90.82 30.1411 75.6021 33.4691 60.9205C36.7971 46.2388 45.0116 32.7528 57.0738 22.168C69.1361 11.5831 84.5044 4.37468 101.235 1.45432C117.966 -1.46604 135.308 0.0327936 151.068 5.76129C166.828 11.4898 180.299 21.1907 189.776 33.6372C199.253 46.0837 204.312 60.7168 204.312 75.6861C204.288 95.7528 195.193 114.991 179.023 129.181C162.853 143.37 140.929 151.351 118.062 151.372ZM118.062 19.7442C105.453 19.7442 93.1278 23.0252 82.6442 29.1721C72.1606 35.3191 63.9896 44.056 59.1645 54.278C54.3394 64.5001 53.0769 75.7481 55.5367 86.5998C57.9966 97.4514 64.0681 107.419 72.9837 115.243C81.8993 123.067 93.2585 128.395 105.625 130.553C117.991 132.712 130.809 131.604 142.458 127.37C154.107 123.136 164.063 115.965 171.068 106.766C178.073 97.5661 181.812 86.7503 181.812 75.6861C181.794 60.8541 175.072 46.6341 163.12 36.1463C151.169 25.6585 134.964 19.7597 118.062 19.7442V19.7442Z" fill="#232323"/>
<path d="M164.878 283H71.2454C60.7041 283 50.2942 280.947 40.7664 276.989C31.2386 273.032 22.8302 267.268 16.1477 260.114C9.46511 252.96 4.67487 244.594 2.12237 235.619C-0.430137 226.644 -0.681301 217.284 1.38699 208.214C6.35756 186.64 19.6667 167.234 39.0636 153.279C58.4605 139.324 82.7546 131.676 107.837 131.628H128.286C153.369 131.676 177.663 139.324 197.06 153.279C216.457 167.234 229.766 186.64 234.737 208.214C236.805 217.284 236.554 226.644 234.001 235.619C231.449 244.594 226.658 252.96 219.976 260.114C213.293 267.268 204.885 273.032 195.357 276.989C185.829 280.947 175.419 283 164.878 283ZM107.837 151.372C87.9515 151.412 68.6915 157.477 53.3144 168.541C37.9373 179.606 27.3868 194.991 23.4472 212.096C22.0348 218.301 22.2087 224.704 23.9564 230.843C25.7041 236.982 28.982 242.705 33.5539 247.599C38.1259 252.492 43.8779 256.435 50.3956 259.142C56.9133 261.85 64.0343 263.255 71.2454 263.256H164.878C172.089 263.255 179.21 261.85 185.728 259.142C192.245 256.434 197.998 252.492 202.569 247.598C207.141 242.705 210.419 236.982 212.167 230.843C213.915 224.704 214.088 218.301 212.676 212.096C208.736 194.991 198.186 179.606 182.809 168.541C167.432 157.477 148.172 151.412 128.286 151.372H107.837Z" fill="#232323"/>
</svg>
