<svg width="512" height="512" viewBox="0 0 512 512" fill="none" xmlns="http://www.w3.org/2000/svg">
<path d="M254 130.571C260.198 130.557 266.333 129.32 272.052 126.931C277.772 124.542 282.963 121.047 287.329 116.648C291.696 112.248 295.151 107.031 297.497 101.293C299.842 95.556 301.033 89.4122 301 83.214V67.47C301 55.0048 296.048 43.0502 287.234 34.236C278.42 25.4218 266.465 20.47 254 20.47C241.535 20.47 229.58 25.4218 220.766 34.236C211.952 43.0502 207 55.0048 207 67.47V83.214C206.967 89.4122 208.157 95.556 210.503 101.293C212.849 107.031 216.304 112.248 220.671 116.648C225.037 121.047 230.228 124.542 235.948 126.931C241.667 129.32 247.802 130.557 254 130.571ZM223 67.471C222.976 63.361 223.762 59.2865 225.313 55.4803C226.864 51.6741 229.15 48.2108 232.04 45.2883C234.93 42.3658 238.367 40.0412 242.156 38.4475C245.944 36.8538 250.01 36.0221 254.12 36H253.882C257.992 36.0221 262.057 36.8538 265.845 38.4475C269.634 40.0411 273.071 42.3656 275.961 45.2881C278.851 48.2105 281.136 51.6737 282.687 55.4798C284.238 59.2858 285.024 63.3601 285 67.47V83.214C285 91.4357 281.734 99.3207 275.92 105.134C270.107 110.948 262.222 114.214 254 114.214C245.778 114.214 237.893 110.948 232.08 105.134C226.266 99.3207 223 91.4357 223 83.214V67.471Z" fill="url(#paint0_linear_60_13)"/>
<path d="M479.24 294H332.178L334.545 191.45L445.059 191.015C447.18 190.99 449.206 190.128 450.694 188.615C452.181 187.103 453.01 185.063 453 182.942V142.276C453 141.348 453.465 140.476 453.422 139.546C453.373 138.5 453.118 137.475 452.67 136.528C452.223 135.582 451.593 134.733 450.816 134.032C450.039 133.33 449.131 132.789 448.144 132.441C447.157 132.092 446.11 131.942 445.065 132H291.4C289.881 131.966 288.384 132.37 287.088 133.164L255.335 153.437L224.816 133.26C223.499 132.412 221.96 131.974 220.394 132H65.458C61.04 132 57 135.385 57 139.8V182.937C57.0522 185.077 57.9392 187.112 59.4713 188.606C61.0035 190.101 63.0595 190.938 65.2 190.937L176.071 191.446L178.555 294H32.76C31.7377 293.972 30.7204 294.152 29.7696 294.528C28.8188 294.905 27.9545 295.471 27.2289 296.192C26.5033 296.912 25.9317 297.773 25.5485 298.721C25.1654 299.669 24.9788 300.686 25 301.708V365.217C24.9773 366.243 25.1624 367.264 25.544 368.217C25.9257 369.17 26.496 370.036 27.2209 370.763C27.9457 371.49 28.8101 372.063 29.7619 372.447C30.7138 372.832 31.7336 373.02 32.76 373H61V483.886C60.9716 484.929 61.1502 485.968 61.5256 486.942C61.901 487.916 62.4657 488.806 63.1871 489.561C63.9085 490.315 64.7722 490.919 65.7284 491.338C66.6846 491.757 67.7143 491.982 68.758 492H443.242C444.286 491.982 445.315 491.757 446.272 491.338C447.228 490.919 448.092 490.315 448.813 489.561C449.534 488.806 450.099 487.916 450.474 486.942C450.85 485.968 451.028 484.929 451 483.886V373H479.24C480.266 373.02 481.286 372.832 482.238 372.447C483.19 372.063 484.054 371.49 484.779 370.763C485.504 370.036 486.074 369.17 486.456 368.217C486.838 367.264 487.023 366.243 487 365.217V301.708C487.021 300.686 486.835 299.669 486.452 298.721C486.068 297.773 485.497 296.912 484.771 296.192C484.046 295.471 483.181 294.905 482.23 294.528C481.28 294.152 480.262 293.972 479.24 294ZM437 174.968L410 175.057V148H437V174.968ZM73 148H101V175.057L73 174.968V148ZM192 183.29C192 181.219 191.185 179.23 189.732 177.754C188.278 176.278 186.302 175.434 184.231 175.402L117 175.109V148H217.981L250.709 169.616C250.73 169.63 250.752 169.595 250.773 169.609L250.837 169.627C250.879 169.655 250.923 169.664 250.965 169.691C251.136 169.8 251.309 169.899 251.486 169.991C251.576 170.039 251.668 170.077 251.759 170.121C251.898 170.189 252.037 170.256 252.18 170.315C252.302 170.366 252.425 170.408 252.548 170.453C252.671 170.498 252.78 170.538 252.898 170.574C253.037 170.617 253.176 170.652 253.316 170.687C253.426 170.714 253.536 170.743 253.646 170.766C253.785 170.794 253.923 170.815 254.062 170.836C254.182 170.855 254.302 170.873 254.422 170.886C254.542 170.899 254.669 170.906 254.793 170.913C254.933 170.921 255.073 170.929 255.214 170.93C255.314 170.93 255.414 170.93 255.52 170.923C255.682 170.923 255.843 170.91 256.005 170.895C256.087 170.888 256.168 170.876 256.25 170.866C256.428 170.844 256.604 170.818 256.78 170.784C256.852 170.77 256.921 170.753 256.992 170.737C257.172 170.698 257.351 170.655 257.529 170.602C257.604 170.579 257.679 170.552 257.754 170.528C257.92 170.473 258.085 170.417 258.254 170.351C258.354 170.312 258.445 170.266 258.541 170.223C258.678 170.162 258.814 170.102 258.948 170.032C259.082 169.962 259.202 169.889 259.328 169.815C259.41 169.766 259.496 169.822 259.577 169.77L293.745 148H394V175.109L326.737 175.33C324.635 175.369 322.63 176.219 321.141 177.703C319.652 179.186 318.794 181.188 318.747 183.29L316.173 294H264V250.025C268.918 248.154 273.025 244.619 275.606 240.034C278.188 235.448 279.081 230.103 278.129 224.928C277.178 219.753 274.443 215.075 270.4 211.707C266.357 208.339 261.262 206.495 256 206.495C250.738 206.495 245.643 208.339 241.6 211.707C237.557 215.075 234.822 219.753 233.871 224.928C232.92 230.103 233.812 235.448 236.394 240.034C238.975 244.619 243.082 248.154 248 250.025V294H194.56L192 183.29ZM256 235.5C254.714 235.5 253.458 235.119 252.389 234.405C251.32 233.69 250.487 232.675 249.995 231.487C249.503 230.3 249.374 228.993 249.625 227.732C249.876 226.471 250.495 225.313 251.404 224.404C252.313 223.495 253.471 222.876 254.732 222.625C255.993 222.374 257.3 222.503 258.487 222.995C259.675 223.487 260.69 224.32 261.405 225.389C262.119 226.458 262.5 227.714 262.5 229C262.498 230.723 261.812 232.375 260.594 233.594C259.375 234.812 257.723 235.498 256 235.5ZM435 476H77V373H435V476ZM471 357H41V310H186.042C186.272 310 186.504 309.889 186.742 309.889C186.805 309.889 186.868 309.961 186.931 309.96C187.081 309.96 187.231 310 187.374 310H253.889C254.564 310 255.271 310.292 256.003 310.292C256.735 310.292 257.442 310 258.117 310H323.364C323.512 310 323.657 309.883 323.808 309.887C323.87 309.887 323.933 309.962 323.996 309.962C324.232 309.962 324.463 310 324.696 310H471V357Z" fill="url(#paint1_linear_60_13)"/>
<defs>
<linearGradient id="paint0_linear_60_13" x1="254" y1="31.616" x2="254" y2="482.016" gradientUnits="userSpaceOnUse">
<stop stop-color="#00EFD1"/>
<stop offset="1" stop-color="#00ACEA"/>
</linearGradient>
<linearGradient id="paint1_linear_60_13" x1="256" y1="31.616" x2="256" y2="482.016" gradientUnits="userSpaceOnUse">
<stop stop-color="#00EFD1"/>
<stop offset="1" stop-color="#00ACEA"/>
</linearGradient>
</defs>
</svg>
