<svg width="386" height="262" viewBox="0 0 386 262" fill="none" xmlns="http://www.w3.org/2000/svg">
<path d="M133.92 261.29C132.672 261.291 131.436 261.046 130.283 260.569C129.13 260.092 128.083 259.392 127.2 258.51L3.78021 135.1C2.89707 134.217 2.19653 133.168 1.71857 132.015C1.24062 130.861 0.994629 129.624 0.994629 128.375C0.994629 127.126 1.24062 125.889 1.71857 124.735C2.19653 123.582 2.89707 122.533 3.78021 121.65C4.66335 120.767 5.71179 120.066 6.86567 119.588C8.01955 119.11 9.25626 118.864 10.5052 118.864C11.7542 118.864 12.9909 119.11 14.1448 119.588C15.2986 120.066 16.3471 120.767 17.2302 121.65L133.92 238.35L368.77 3.49001C369.644 2.57044 370.694 1.83511 371.857 1.32732C373.019 0.819531 374.272 0.549553 375.541 0.533283C376.809 0.517013 378.068 0.754781 379.244 1.23259C380.419 1.71039 381.487 2.41857 382.385 3.31542C383.282 4.21226 383.991 5.27963 384.47 6.45467C384.949 7.62971 385.187 8.88866 385.172 10.1574C385.157 11.4261 384.888 12.6789 384.381 13.842C383.874 15.0052 383.139 16.0551 382.22 16.93L140.64 258.51C138.857 260.29 136.44 261.29 133.92 261.29Z" fill="black"/>
</svg>
