<svg width="185" height="139" viewBox="0 0 185 139" fill="none" xmlns="http://www.w3.org/2000/svg">
<g clip-path="url(#clip0_402_2)">
<path d="M182.315 18.021L165.99 1.69498C165.455 1.15775 164.819 0.731471 164.119 0.440601C163.419 0.149732 162.668 0 161.91 0C161.152 0 160.401 0.149732 159.701 0.440601C159.001 0.731471 158.365 1.15775 157.83 1.69498L74.3632 89.814L26.5202 41.948C25.4235 40.8517 23.9363 40.2358 22.3857 40.2358C20.835 40.2358 19.3478 40.8517 18.2512 41.948L1.71218 58.501C0.61587 59.5976 0 61.0848 0 62.6355C0 64.1861 0.61587 65.6733 1.71218 66.77L69.7562 136.396C70.3845 137.012 71.1477 137.473 71.9853 137.742C72.8228 138.012 73.7116 138.083 74.5812 137.949C75.4766 138.105 76.3963 138.045 77.2641 137.775C78.132 137.505 78.9231 137.032 79.5722 136.396L182.315 26.186C183.398 25.103 184.006 23.6343 184.006 22.103C184.006 20.5716 183.398 19.104 182.315 18.021Z" fill="#010101"/>
</g>
<defs>
<clipPath id="clip0_402_2">
<rect width="184.005" height="138.017" fill="white"/>
</clipPath>
</defs>
</svg>
