<svg width="101" height="101" viewBox="0 0 101 101" fill="none" xmlns="http://www.w3.org/2000/svg">
<path d="M50.4999 32.3C33.8999 32.3 17.7999 48.2 17.0999 48.8C16.5999 49.3 16.3999 49.9 16.3999 50.5C16.3999 51.1 16.6999 51.7 17.0999 52.2C17.7999 52.9 33.7999 68.7 50.4999 68.7C67.1999 68.7 83.1999 52.8 83.8999 52.2C84.2999 51.8 84.5999 51.1 84.5999 50.5C84.5999 49.9 84.2999 49.3 83.8999 48.8C83.1999 48.1 67.0999 32.3 50.4999 32.3V32.3ZM50.4999 63.9C38.8999 63.9 26.8999 54.4 22.3999 50.5C26.8999 46.5 38.8999 37.1 50.4999 37.1C62.0999 37.1 74.0999 46.6 78.5999 50.5C74.0999 54.5 62.0999 63.9 50.4999 63.9V63.9Z" fill="black"/>
<path d="M41.8999 50.5C41.8999 55.3 45.7999 59.1 50.4999 59.1C55.1999 59.1 59.0999 55.2 59.0999 50.5C59.0999 45.8 55.1999 41.9 50.4999 41.9C45.7999 41.9 41.8999 45.7 41.8999 50.5ZM54.2999 50.5C54.2999 52.6 52.5999 54.3 50.4999 54.3C48.3999 54.3 46.6999 52.6 46.6999 50.5C46.6999 48.4 48.3999 46.7 50.4999 46.7C52.5999 46.7 54.2999 48.4 54.2999 50.5Z" fill="black"/>
</svg>
