<svg width="439" height="435" viewBox="0 0 439 435" fill="none" xmlns="http://www.w3.org/2000/svg">
<path d="M225.02 1.95934C223.566 0.69696 221.706 0.00128762 219.78 1.78566e-06C217.855 -0.00128405 215.993 0.691903 214.538 1.95234L2.76394 185.347C1.53061 186.421 0.653578 187.846 0.24956 189.43C-0.154459 191.015 -0.0663085 192.685 0.502276 194.219C1.07086 195.752 2.09292 197.076 3.43246 198.015C4.772 198.953 6.36551 199.461 8.00094 199.471H47.5009V423.942C47.5526 426.046 48.4348 428.043 49.9546 429.498C51.4745 430.953 53.5084 431.747 55.6119 431.706L379.301 434.471H379.375C381.474 434.558 383.522 433.81 385.07 432.39C385.825 431.696 386.43 430.854 386.848 429.917C387.266 428.98 387.488 427.968 387.501 426.942V199.471H431.001C432.634 199.463 434.227 198.957 435.565 198.022C436.904 197.086 437.927 195.765 438.496 194.234C439.066 192.703 439.155 191.035 438.753 189.452C438.351 187.868 437.477 186.445 436.246 185.371L225.02 1.95934ZM265.501 417.888L175.501 417.047V315.471H265.501V417.888ZM371.501 418.867L281.501 418.036V307.353C281.522 306.32 281.336 305.293 280.953 304.333C280.57 303.373 279.998 302.5 279.272 301.765C278.545 301.03 277.679 300.448 276.723 300.054C275.768 299.66 274.743 299.462 273.71 299.471H167.015C162.597 299.471 159.501 302.934 159.501 307.353V416.898L63.5009 416.016V199.471H371.501V418.867ZM29.4589 183.471L219.768 18.6653L409.585 183.471H29.4589Z" fill="url(#paint0_linear_60_34)"/>
<defs>
<linearGradient id="paint0_linear_60_34" x1="219.501" y1="-10.5287" x2="219.501" y2="445.752" gradientUnits="userSpaceOnUse">
<stop stop-color="#00EFD1"/>
<stop offset="1" stop-color="#00ACEA"/>
</linearGradient>
</defs>
</svg>
