<svg width="32" height="32" viewBox="0 0 32 32" fill="none" xmlns="http://www.w3.org/2000/svg">
<path d="M13.0322 28.6846H4C3.86745 28.6844 3.74038 28.6316 3.64665 28.5379C3.55292 28.4442 3.50019 28.3171 3.5 28.1846V4.18457C3.50016 4.05201 3.55289 3.92493 3.64662 3.83119C3.74036 3.73746 3.86744 3.68473 4 3.68457H13.0322C13.1648 3.68457 13.292 3.63189 13.3858 3.53812C13.4795 3.44436 13.5322 3.31718 13.5322 3.18457C13.5322 3.05196 13.4795 2.92478 13.3858 2.83102C13.292 2.73725 13.1648 2.68457 13.0322 2.68457H4C3.60231 2.68499 3.22102 2.84316 2.93981 3.12438C2.65859 3.40559 2.50042 3.78688 2.5 4.18457V28.1846C2.50045 28.5823 2.65863 28.9635 2.93984 29.2447C3.22104 29.5259 3.60231 29.6841 4 29.6846H13.0322C13.1648 29.6846 13.292 29.6319 13.3858 29.5381C13.4795 29.4444 13.5322 29.3172 13.5322 29.1846C13.5322 29.052 13.4795 28.9248 13.3858 28.831C13.292 28.7372 13.1648 28.6846 13.0322 28.6846Z" fill="url(#paint0_linear_209_2)"/>
<path d="M25.4878 16.0599C25.4989 15.9843 25.4921 15.9071 25.4681 15.8345C25.4441 15.762 25.4035 15.696 25.3495 15.6418L19.3173 9.75044C19.2703 9.70453 19.2147 9.66833 19.1538 9.6439C19.0928 9.61947 19.0276 9.6073 18.9619 9.60807C18.8962 9.60884 18.8313 9.62254 18.7709 9.64839C18.7105 9.67425 18.6557 9.71174 18.6098 9.75874C18.5639 9.80574 18.5277 9.86133 18.5033 9.92232C18.4789 9.98331 18.4667 10.0485 18.4674 10.1142C18.4682 10.1799 18.4819 10.2448 18.5078 10.3052C18.5336 10.3656 18.5711 10.4203 18.6181 10.4662L23.7787 15.5062L6.99703 15.5981C6.93133 15.5984 6.86635 15.6117 6.80579 15.6372C6.74523 15.6626 6.69028 15.6998 6.64411 15.7465C6.59793 15.7932 6.56142 15.8486 6.53668 15.9095C6.51194 15.9703 6.49945 16.0355 6.49993 16.1011C6.49716 16.1677 6.50831 16.234 6.53269 16.296C6.55706 16.3579 6.59411 16.4141 6.64146 16.4609C6.6888 16.5077 6.74541 16.544 6.80764 16.5677C6.86987 16.5913 6.93635 16.6017 7.00283 16.5981L23.8065 16.5058L18.6099 21.8256C18.563 21.8724 18.5258 21.9279 18.5005 21.9891C18.4752 22.0504 18.4623 22.116 18.4626 22.1822C18.4629 22.2484 18.4764 22.3139 18.5022 22.3749C18.528 22.4359 18.5657 22.4912 18.613 22.5375C18.6603 22.5838 18.7164 22.6202 18.778 22.6447C18.8395 22.6692 18.9053 22.6811 18.9715 22.68C19.0377 22.6788 19.103 22.6645 19.1637 22.6378C19.2243 22.6112 19.2791 22.5728 19.3247 22.5248L25.3573 16.3499L25.3586 16.3474C25.4176 16.2839 25.4584 16.2056 25.4768 16.1208C25.4819 16.1008 25.4855 16.0805 25.4878 16.0599V16.0599Z" fill="url(#paint1_linear_209_2)"/>
<defs>
<linearGradient id="paint0_linear_209_2" x1="2.5" y1="16.185" x2="13.532" y2="16.185" gradientUnits="userSpaceOnUse">
<stop stop-color="#15FFEE"/>
<stop offset="1" stop-color="#73C3FF"/>
</linearGradient>
<linearGradient id="paint1_linear_209_2" x1="6.49993" y1="16.1419" x2="25.4919" y2="16.1419" gradientUnits="userSpaceOnUse">
<stop stop-color="#15FFEE"/>
<stop offset="1" stop-color="#73C3FF"/>
</linearGradient>
</defs>
</svg>
