<svg width="512" height="512" viewBox="0 0 512 512" fill="none" xmlns="http://www.w3.org/2000/svg">
<path d="M496.514 249.164H453.474C449.839 146.108 366.674 62.953 263.613 59.333V16.1C263.613 14.2435 262.876 12.463 261.563 11.1502C260.25 9.83747 258.47 9.09998 256.613 9.09998C254.757 9.09998 252.976 9.83747 251.663 11.1502C250.351 12.463 249.613 14.2435 249.613 16.1V59.333C146.553 62.952 63.387 146.107 59.752 249.164H15.486C13.6295 249.164 11.849 249.901 10.5363 251.214C9.22352 252.527 8.48602 254.307 8.48602 256.164C8.48602 258.02 9.22352 259.801 10.5363 261.114C11.849 262.426 13.6295 263.164 15.486 263.164H59.75C63.35 366.249 146.532 449.438 249.613 453.058V495.906C249.613 497.762 250.351 499.543 251.663 500.856C252.976 502.168 254.757 502.906 256.613 502.906C258.47 502.906 260.25 502.168 261.563 500.856C262.876 499.543 263.613 497.762 263.613 495.906V453.058C366.695 449.438 449.873 366.249 453.476 263.164H496.514C498.371 263.164 500.151 262.426 501.464 261.114C502.777 259.801 503.514 258.02 503.514 256.164C503.514 254.307 502.777 252.527 501.464 251.214C500.151 249.901 498.371 249.164 496.514 249.164ZM256.613 439.2C155.707 439.2 73.613 357.107 73.613 256.2C73.613 155.293 155.707 73.2 256.613 73.2C357.519 73.2 439.613 155.293 439.613 256.2C439.613 357.107 357.519 439.2 256.613 439.2Z" fill="url(#paint0_linear_60_16)"/>
<path d="M285.667 45.161C379.961 58.014 454.793 132.847 467.646 227.14C467.761 228.059 468.057 228.945 468.517 229.748C468.977 230.552 469.591 231.256 470.325 231.82C471.059 232.384 471.898 232.797 472.792 233.035C473.687 233.273 474.62 233.331 475.537 233.206C476.454 233.082 477.337 232.776 478.136 232.307C478.934 231.839 479.631 231.216 480.187 230.476C480.744 229.736 481.147 228.893 481.376 227.996C481.604 227.099 481.652 226.166 481.517 225.25C467.817 124.75 388.06 44.988 287.558 31.289C285.718 31.0383 283.855 31.5285 282.377 32.652C280.898 33.7754 279.927 35.44 279.676 37.2795C279.426 39.1191 279.916 40.9829 281.039 42.461C282.163 43.939 283.827 44.9103 285.667 45.161Z" fill="url(#paint1_linear_60_16)"/>
<path d="M227.558 467.229C133.264 454.376 58.431 379.543 45.579 285.25C45.464 284.332 45.168 283.445 44.7081 282.642C44.2482 281.838 43.6335 281.134 42.8996 280.57C42.1658 280.006 41.3273 279.593 40.4327 279.355C39.5382 279.117 38.6053 279.059 37.6881 279.184C36.7709 279.309 35.8876 279.614 35.0893 280.083C34.2911 280.551 33.5937 281.174 33.0375 281.914C32.4813 282.654 32.0775 283.497 31.8492 284.394C31.621 285.291 31.573 286.224 31.708 287.14C45.408 387.64 125.166 467.401 225.668 481.1C225.984 481.143 226.303 481.165 226.622 481.165C228.396 481.163 230.103 480.487 231.398 479.275C232.693 478.063 233.479 476.404 233.598 474.634C233.717 472.864 233.159 471.115 232.038 469.741C230.917 468.366 229.316 467.468 227.558 467.229Z" fill="url(#paint2_linear_60_16)"/>
<path d="M37.7 233.131C38.0162 233.174 38.3349 233.196 38.654 233.196C40.3454 233.194 41.9789 232.579 43.2523 231.466C44.5257 230.353 45.3529 228.816 45.581 227.14C58.432 132.846 133.265 58.014 227.558 45.161C229.398 44.9103 231.062 43.939 232.186 42.461C233.309 40.9829 233.799 39.1191 233.548 37.2795C233.298 35.44 232.326 33.7754 230.848 32.652C229.37 31.5285 227.507 31.0383 225.667 31.289C125.167 44.989 45.406 124.748 31.707 225.25C31.5829 226.161 31.6395 227.088 31.8735 227.977C32.1076 228.866 32.5145 229.7 33.071 230.432C33.6275 231.164 34.3227 231.779 35.117 232.242C35.9113 232.705 36.789 233.007 37.7 233.131Z" fill="url(#paint3_linear_60_16)"/>
<path d="M475.528 279.259C474.617 279.135 473.691 279.191 472.802 279.425C471.913 279.659 471.079 280.066 470.347 280.622C469.615 281.179 469 281.874 468.537 282.668C468.073 283.462 467.771 284.339 467.647 285.25C454.794 379.543 379.961 454.376 285.668 467.229C284.757 467.353 283.88 467.656 283.086 468.119C282.292 468.582 281.597 469.197 281.04 469.929C279.917 471.407 279.427 473.271 279.677 475.111C279.928 476.95 280.899 478.615 282.378 479.738C283.856 480.862 285.719 481.352 287.559 481.101C388.059 467.401 467.82 387.643 481.519 287.141C481.643 286.23 481.587 285.304 481.353 284.414C481.119 283.525 480.712 282.691 480.156 281.959C479.6 281.227 478.905 280.612 478.111 280.149C477.316 279.685 476.439 279.383 475.528 279.259Z" fill="url(#paint4_linear_60_16)"/>
<path d="M155.223 233.4V225.078C155.223 221.427 154.504 217.811 153.106 214.438C151.709 211.064 149.661 207.999 147.079 205.417C144.497 202.835 141.432 200.787 138.058 199.39C134.685 197.992 131.069 197.273 127.418 197.273C123.767 197.273 120.151 197.992 116.777 199.39C113.404 200.787 110.339 202.835 107.757 205.417C105.175 207.999 103.127 211.064 101.73 214.438C100.332 217.811 99.613 221.427 99.613 225.078V233.4C99.613 240.774 102.542 247.847 107.757 253.061C112.971 258.276 120.044 261.205 127.418 261.205C134.792 261.205 141.865 258.276 147.079 253.061C152.294 247.847 155.223 240.774 155.223 233.4ZM141.223 233.4C141.217 237.059 139.761 240.567 137.173 243.154C134.585 245.741 131.077 247.196 127.418 247.2C123.759 247.196 120.251 245.741 117.663 243.154C115.075 240.567 113.619 237.059 113.613 233.4V225.078C113.613 221.417 115.067 217.905 117.656 215.316C120.245 212.727 123.757 211.273 127.418 211.273C131.079 211.273 134.591 212.727 137.18 215.316C139.769 217.905 141.223 221.417 141.223 225.078V233.4Z" fill="url(#paint5_linear_60_16)"/>
<path d="M284.418 233.4V225.078C284.418 217.704 281.489 210.631 276.274 205.417C271.06 200.202 263.987 197.273 256.613 197.273C249.239 197.273 242.166 200.202 236.952 205.417C231.737 210.631 228.808 217.704 228.808 225.078V233.4C228.808 240.774 231.737 247.847 236.952 253.061C242.166 258.276 249.239 261.205 256.613 261.205C263.987 261.205 271.06 258.276 276.274 253.061C281.489 247.847 284.418 240.774 284.418 233.4ZM270.418 233.4C270.418 237.061 268.964 240.573 266.375 243.162C263.786 245.751 260.274 247.205 256.613 247.205C252.952 247.205 249.44 245.751 246.851 243.162C244.262 240.573 242.808 237.061 242.808 233.4V225.078C242.808 221.417 244.262 217.905 246.851 215.316C249.44 212.727 252.952 211.273 256.613 211.273C260.274 211.273 263.786 212.727 266.375 215.316C268.964 217.905 270.418 221.417 270.418 225.078V233.4Z" fill="url(#paint6_linear_60_16)"/>
<path d="M358 225.077V233.4C358 240.774 360.929 247.847 366.144 253.061C371.358 258.276 378.431 261.205 385.805 261.205C393.179 261.205 400.252 258.276 405.466 253.061C410.681 247.847 413.61 240.774 413.61 233.4V225.078C413.61 217.704 410.681 210.631 405.466 205.417C400.252 200.202 393.179 197.273 385.805 197.273C378.431 197.273 371.358 200.202 366.144 205.417C360.929 210.631 358 217.704 358 225.078V225.077ZM399.611 225.077V233.4C399.611 237.061 398.157 240.573 395.568 243.162C392.979 245.751 389.467 247.205 385.806 247.205C382.145 247.205 378.633 245.751 376.044 243.162C373.455 240.573 372.001 237.061 372.001 233.4V225.078C372.001 221.417 373.455 217.905 376.044 215.316C378.633 212.727 382.145 211.273 385.806 211.273C389.467 211.273 392.979 212.727 395.568 215.316C398.157 217.905 399.611 221.417 399.611 225.078V225.077Z" fill="url(#paint7_linear_60_16)"/>
<path d="M320.646 206.942C328.018 206.934 335.085 204.002 340.298 198.789C345.511 193.576 348.443 186.509 348.451 179.137V170.815C348.451 163.441 345.522 156.368 340.307 151.154C335.093 145.939 328.02 143.01 320.646 143.01C313.272 143.01 306.199 145.939 300.985 151.154C295.771 156.368 292.841 163.441 292.841 170.815V179.137C292.849 186.509 295.781 193.577 300.994 198.789C306.206 204.002 313.274 206.934 320.646 206.942ZM306.84 170.815C306.84 167.154 308.295 163.642 310.883 161.053C313.472 158.464 316.984 157.01 320.645 157.01C324.306 157.01 327.818 158.464 330.407 161.053C332.996 163.642 334.45 167.154 334.45 170.815V179.137C334.45 182.798 332.996 186.31 330.407 188.899C327.818 191.488 324.306 192.942 320.645 192.942C316.984 192.942 313.472 191.488 310.883 188.899C308.295 186.31 306.84 182.798 306.84 179.137V170.815Z" fill="url(#paint8_linear_60_16)"/>
<path d="M256.613 161.724C263.984 161.716 271.051 158.784 276.263 153.573C281.476 148.361 284.408 141.295 284.418 133.924V125.6C284.418 118.226 281.489 111.153 276.274 105.939C271.06 100.724 263.987 97.795 256.613 97.795C249.239 97.795 242.166 100.724 236.952 105.939C231.737 111.153 228.808 118.226 228.808 125.6V133.922C228.817 141.293 231.749 148.36 236.962 153.572C242.174 158.784 249.242 161.716 256.613 161.724ZM242.807 125.6C242.807 121.939 244.261 118.427 246.85 115.838C249.439 113.249 252.951 111.795 256.612 111.795C260.273 111.795 263.785 113.249 266.374 115.838C268.963 118.427 270.417 121.939 270.417 125.6V133.922C270.417 137.583 268.963 141.095 266.374 143.684C263.785 146.273 260.273 147.727 256.612 147.727C252.951 147.727 249.439 146.273 246.85 143.684C244.261 141.095 242.807 137.583 242.807 133.922V125.6Z" fill="url(#paint9_linear_60_16)"/>
<path d="M192.015 297.378C199.387 297.37 206.454 294.438 211.667 289.225C216.88 284.012 219.812 276.945 219.82 269.573V261.251C219.82 253.877 216.891 246.804 211.676 241.59C206.462 236.375 199.389 233.446 192.015 233.446C184.641 233.446 177.568 236.375 172.354 241.59C167.139 246.804 164.21 253.877 164.21 261.251V269.573C164.218 276.945 167.15 284.012 172.363 289.225C177.576 294.438 184.643 297.37 192.015 297.378ZM178.215 261.251C178.215 257.59 179.669 254.078 182.258 251.489C184.847 248.9 188.359 247.446 192.02 247.446C195.681 247.446 199.193 248.9 201.782 251.489C204.371 254.078 205.825 257.59 205.825 261.251V269.573C205.825 273.234 204.371 276.746 201.782 279.335C199.193 281.924 195.681 283.378 192.02 283.378C188.359 283.378 184.847 281.924 182.258 279.335C179.669 276.746 178.215 273.234 178.215 269.573V261.251Z" fill="url(#paint10_linear_60_16)"/>
<path d="M219.062 299.269H207.308C206.196 299.269 205.1 299.534 204.111 300.042C203.122 300.549 202.268 301.286 201.62 302.189L192.72 314.603L183.82 302.189C183.172 301.286 182.318 300.549 181.329 300.042C180.34 299.534 179.244 299.269 178.132 299.269H164.971C157.317 299.277 149.979 302.32 144.566 307.732C139.153 313.144 136.109 320.482 136.1 328.136V377.6C136.1 379.457 136.837 381.237 138.15 382.55C139.463 383.862 141.243 384.6 143.1 384.6H240.93C242.786 384.6 244.567 383.862 245.88 382.55C247.192 381.237 247.93 379.457 247.93 377.6V328.136C247.921 320.482 244.877 313.145 239.465 307.733C234.053 302.321 226.715 299.277 219.062 299.269ZM233.928 370.599H150.1V328.136C150.104 324.194 151.672 320.415 154.459 317.628C157.246 314.841 161.025 313.273 164.967 313.269H174.53L187.03 330.694C187.678 331.597 188.532 332.334 189.521 332.841C190.51 333.349 191.606 333.614 192.718 333.614C193.83 333.614 194.926 333.349 195.915 332.841C196.904 332.334 197.758 331.597 198.406 330.694L210.906 313.269H219.066C223.008 313.273 226.787 314.841 229.574 317.628C232.361 320.415 233.929 324.194 233.933 328.136V370.6L233.928 370.599Z" fill="url(#paint11_linear_60_16)"/>
<path d="M320.646 297.378C328.018 297.37 335.085 294.438 340.298 289.225C345.511 284.012 348.443 276.945 348.451 269.573V261.251C348.451 253.877 345.522 246.804 340.307 241.59C335.093 236.375 328.02 233.446 320.646 233.446C313.272 233.446 306.199 236.375 300.985 241.59C295.77 246.804 292.841 253.877 292.841 261.251V269.573C292.849 276.945 295.781 284.013 300.994 289.225C306.206 294.438 313.274 297.37 320.646 297.378ZM306.84 261.251C306.84 257.59 308.294 254.078 310.883 251.489C313.472 248.9 316.984 247.446 320.645 247.446C324.306 247.446 327.818 248.9 330.407 251.489C332.996 254.078 334.45 257.59 334.45 261.251V269.573C334.45 273.234 332.996 276.746 330.407 279.335C327.818 281.924 324.306 283.378 320.645 283.378C316.984 283.378 313.472 281.924 310.883 279.335C308.294 276.746 306.84 273.234 306.84 269.573V261.251ZM347.692 299.269H335.938C334.826 299.269 333.73 299.534 332.741 300.042C331.752 300.549 330.898 301.286 330.25 302.189L321.35 314.603L312.45 302.189C311.802 301.286 310.948 300.549 309.959 300.042C308.97 299.534 307.874 299.269 306.762 299.269H293.6C285.947 299.278 278.609 302.322 273.198 307.734C267.786 313.145 264.742 320.483 264.733 328.136V377.6C264.733 379.457 265.471 381.237 266.783 382.55C268.096 383.862 269.877 384.6 271.733 384.6H369.559C371.416 384.6 373.196 383.862 374.509 382.55C375.822 381.237 376.559 379.457 376.559 377.6V328.136C376.55 320.483 373.506 313.145 368.094 307.734C362.683 302.322 355.345 299.278 347.692 299.269ZM362.559 370.599H278.733V328.136C278.737 324.194 280.305 320.415 283.092 317.628C285.879 314.841 289.658 313.273 293.6 313.269H303.163L315.663 330.694C316.311 331.597 317.165 332.334 318.154 332.841C319.143 333.349 320.239 333.614 321.351 333.614C322.463 333.614 323.559 333.349 324.548 332.841C325.537 332.334 326.391 331.597 327.039 330.694L339.539 313.269H347.699C351.641 313.273 355.42 314.841 358.207 317.628C360.994 320.415 362.562 324.194 362.566 328.136V370.6L362.559 370.599Z" fill="url(#paint12_linear_60_16)"/>
<path d="M191.805 206.932C199.177 206.924 206.244 203.992 211.457 198.779C216.67 193.566 219.602 186.499 219.61 179.127V170.805C219.61 163.431 216.681 156.358 211.466 151.144C206.252 145.929 199.179 143 191.805 143C184.431 143 177.358 145.929 172.144 151.144C166.929 156.358 164 163.431 164 170.805V179.127C164.008 186.499 166.94 193.566 172.153 198.779C177.366 203.992 184.433 206.924 191.805 206.932ZM178.005 170.805C178.005 167.144 179.459 163.632 182.048 161.043C184.637 158.454 188.149 157 191.81 157C195.471 157 198.983 158.454 201.572 161.043C204.161 163.632 205.615 167.144 205.615 170.805V179.127C205.615 182.788 204.161 186.3 201.572 188.889C198.983 191.478 195.471 192.932 191.81 192.932C188.149 192.932 184.637 191.478 182.048 188.889C179.459 186.3 178.005 182.788 178.005 179.127V170.805Z" fill="url(#paint13_linear_60_16)"/>
<defs>
<linearGradient id="paint0_linear_60_16" x1="256" y1="9.99998" x2="256" y2="498.016" gradientUnits="userSpaceOnUse">
<stop stop-color="#00EFD1"/>
<stop offset="1" stop-color="#00ACEA"/>
</linearGradient>
<linearGradient id="paint1_linear_60_16" x1="380.597" y1="514" x2="380.597" y2="498.016" gradientUnits="userSpaceOnUse">
<stop stop-color="#00EFD1"/>
<stop offset="1" stop-color="#00ACEA"/>
</linearGradient>
<linearGradient id="paint2_linear_60_16" x1="132.628" y1="514" x2="132.628" y2="498.016" gradientUnits="userSpaceOnUse">
<stop stop-color="#00EFD1"/>
<stop offset="1" stop-color="#00ACEA"/>
</linearGradient>
<linearGradient id="paint3_linear_60_16" x1="132.628" y1="514" x2="132.628" y2="498.016" gradientUnits="userSpaceOnUse">
<stop stop-color="#00EFD1"/>
<stop offset="1" stop-color="#00ACEA"/>
</linearGradient>
<linearGradient id="paint4_linear_60_16" x1="380.598" y1="514" x2="380.598" y2="498.016" gradientUnits="userSpaceOnUse">
<stop stop-color="#00EFD1"/>
<stop offset="1" stop-color="#00ACEA"/>
</linearGradient>
<linearGradient id="paint5_linear_60_16" x1="127.418" y1="514" x2="127.418" y2="498.016" gradientUnits="userSpaceOnUse">
<stop stop-color="#00EFD1"/>
<stop offset="1" stop-color="#00ACEA"/>
</linearGradient>
<linearGradient id="paint6_linear_60_16" x1="256.613" y1="514" x2="256.613" y2="498.016" gradientUnits="userSpaceOnUse">
<stop stop-color="#00EFD1"/>
<stop offset="1" stop-color="#00ACEA"/>
</linearGradient>
<linearGradient id="paint7_linear_60_16" x1="385.807" y1="514" x2="385.807" y2="498.016" gradientUnits="userSpaceOnUse">
<stop stop-color="#00EFD1"/>
<stop offset="1" stop-color="#00ACEA"/>
</linearGradient>
<linearGradient id="paint8_linear_60_16" x1="320.646" y1="514" x2="320.646" y2="498.016" gradientUnits="userSpaceOnUse">
<stop stop-color="#00EFD1"/>
<stop offset="1" stop-color="#00ACEA"/>
</linearGradient>
<linearGradient id="paint9_linear_60_16" x1="256.613" y1="514" x2="256.613" y2="498.016" gradientUnits="userSpaceOnUse">
<stop stop-color="#00EFD1"/>
<stop offset="1" stop-color="#00ACEA"/>
</linearGradient>
<linearGradient id="paint10_linear_60_16" x1="192.015" y1="514" x2="192.015" y2="498.016" gradientUnits="userSpaceOnUse">
<stop stop-color="#00EFD1"/>
<stop offset="1" stop-color="#00ACEA"/>
</linearGradient>
<linearGradient id="paint11_linear_60_16" x1="192.017" y1="514" x2="192.017" y2="498.016" gradientUnits="userSpaceOnUse">
<stop stop-color="#00EFD1"/>
<stop offset="1" stop-color="#00ACEA"/>
</linearGradient>
<linearGradient id="paint12_linear_60_16" x1="320.646" y1="514" x2="320.646" y2="498.016" gradientUnits="userSpaceOnUse">
<stop stop-color="#00EFD1"/>
<stop offset="1" stop-color="#00ACEA"/>
</linearGradient>
<linearGradient id="paint13_linear_60_16" x1="191.805" y1="513.99" x2="191.805" y2="498.006" gradientUnits="userSpaceOnUse">
<stop stop-color="#00EFD1"/>
<stop offset="1" stop-color="#00ACEA"/>
</linearGradient>
</defs>
</svg>
