<svg width="500" height="350" viewBox="0 0 500 350" fill="none" xmlns="http://www.w3.org/2000/svg">
<path d="M500 307.575H0V307.809H500V307.575Z" fill="#EBEBEB"/>
<path d="M449.9 322.69H416.78V322.925H449.9V322.69Z" fill="#EBEBEB"/>
<path d="M331.22 325.246H322.53V325.48H331.22V325.246Z" fill="#EBEBEB"/>
<path d="M415.78 313.972H396.59V314.207H415.78V313.972Z" fill="#EBEBEB"/>
<path d="M95.6502 315.551H52.4602V315.785H95.6502V315.551Z" fill="#EBEBEB"/>
<path d="M110.89 315.551H104.56V315.785H110.89V315.551Z" fill="#EBEBEB"/>
<path d="M225.15 319.515H131.47V319.75H225.15V319.515Z" fill="#EBEBEB"/>
<path d="M237 265.675H43.91C42.3973 265.673 40.9475 265.107 39.8788 264.101C38.8102 263.095 38.21 261.732 38.21 260.311V5.31726C38.2231 3.90436 38.8292 2.55339 39.8964 1.55781C40.9637 0.562219 42.4059 0.00242038 43.91 0H237C238.514 0 239.967 0.565159 241.038 1.57115C242.108 2.57714 242.71 3.94155 242.71 5.36424V260.311C242.71 261.734 242.108 263.098 241.038 264.104C239.967 265.11 238.514 265.675 237 265.675V265.675ZM43.91 0.18789C42.4636 0.190379 41.0774 0.73189 40.0556 1.69356C39.0338 2.65524 38.46 3.9585 38.46 5.31726V260.311C38.46 261.67 39.0338 262.973 40.0556 263.935C41.0774 264.896 42.4636 265.438 43.91 265.44H237C238.447 265.438 239.834 264.897 240.858 263.935C241.881 262.974 242.457 261.671 242.46 260.311V5.31726C242.457 3.95763 241.881 2.6544 240.858 1.69299C239.834 0.731584 238.447 0.190373 237 0.18789H43.91Z" fill="#EBEBEB"/>
<path d="M453.31 265.675H260.21C258.696 265.673 257.246 265.107 256.175 264.101C255.105 263.096 254.503 261.733 254.5 260.311V5.31726C254.516 3.9035 255.124 2.55255 256.193 1.55722C257.262 0.561891 258.705 0.00239398 260.21 0H453.31C454.812 0.00488934 456.252 0.565781 457.317 1.5611C458.382 2.55643 458.987 3.90598 459 5.31726V260.311C459 261.731 458.401 263.092 457.335 264.098C456.268 265.103 454.821 265.67 453.31 265.675V265.675ZM260.21 0.18789C258.763 0.190373 257.375 0.731584 256.352 1.69299C255.329 2.6544 254.753 3.95763 254.75 5.31726V260.311C254.753 261.671 255.329 262.974 256.352 263.935C257.375 264.897 258.763 265.438 260.21 265.44H453.31C454.757 265.438 456.145 264.897 457.168 263.935C458.191 262.974 458.767 261.671 458.77 260.311V5.31726C458.767 3.95763 458.191 2.6544 457.168 1.69299C456.145 0.731584 454.757 0.190373 453.31 0.18789H260.21Z" fill="#EBEBEB"/>
<path d="M258.11 256.816H329.48V64.6621H258.11V256.816Z" fill="#FAFAFA"/>
<path d="M256.45 71.4824L331.12 71.4824V62.0504L256.45 62.0504V71.4824Z" fill="#F0F0F0"/>
<path d="M256.45 77.2507L331.12 77.2507V72.5346L256.45 72.5346V77.2507Z" fill="#F0F0F0"/>
<path d="M256.45 84.2401L331.12 84.2401V79.5241L256.45 79.5241V84.2401Z" fill="#F0F0F0"/>
<path d="M256.45 91.239L331.12 91.239V86.523L256.45 86.523V91.239Z" fill="#F0F0F0"/>
<path d="M256.45 98.2378L331.12 98.2378V93.5218L256.45 93.5218V98.2378Z" fill="#F0F0F0"/>
<path d="M256.45 105.227L331.12 105.227V100.511L256.45 100.511V105.227Z" fill="#F0F0F0"/>
<path d="M256.45 112.226L331.12 112.226V107.51L256.45 107.51V112.226Z" fill="#F0F0F0"/>
<path d="M256.45 119.234L331.12 119.234V114.518L256.45 114.518V119.234Z" fill="#F0F0F0"/>
<path d="M256.45 126.224L331.12 126.224V121.508L256.45 121.508V126.224Z" fill="#F0F0F0"/>
<path d="M256.45 133.223H331.12V128.507H256.45V133.223Z" fill="#F0F0F0"/>
<path d="M256.45 140.212H331.12V135.496H256.45V140.212Z" fill="#F0F0F0"/>
<path d="M256.45 147.211H331.12V142.495H256.45V147.211Z" fill="#F0F0F0"/>
<path d="M256.45 154.219H331.12V149.503H256.45V154.219Z" fill="#F0F0F0"/>
<path d="M256.45 161.209H331.12V156.493H256.45V161.209Z" fill="#F0F0F0"/>
<path d="M256.45 168.208H331.12V163.492H256.45V168.208Z" fill="#F0F0F0"/>
<path d="M256.45 175.207H331.12V170.491H256.45V175.207Z" fill="#F0F0F0"/>
<path d="M256.45 182.196H331.12V177.48H256.45V182.196Z" fill="#F0F0F0"/>
<path d="M256.45 189.195H331.12V184.479H256.45V189.195Z" fill="#F0F0F0"/>
<path d="M256.45 196.203H331.12V191.487H256.45V196.203Z" fill="#F0F0F0"/>
<path d="M256.45 203.193H331.12V198.477H256.45V203.193Z" fill="#F0F0F0"/>
<path d="M256.45 210.192H331.12V205.476H256.45V210.192Z" fill="#F0F0F0"/>
<path d="M256.45 217.19H331.12V212.474H256.45V217.19Z" fill="#F0F0F0"/>
<path d="M256.45 224.18H331.12V219.464H256.45V224.18Z" fill="#F0F0F0"/>
<path d="M256.45 231.179H331.12V226.463H256.45V231.179Z" fill="#F0F0F0"/>
<path d="M256.45 238.187H331.12V233.471H256.45V238.187Z" fill="#F0F0F0"/>
<path d="M256.45 245.177H331.12V240.461H256.45V245.177Z" fill="#F0F0F0"/>
<path d="M256.45 252.175H331.12V247.459H256.45V252.175Z" fill="#F0F0F0"/>
<path d="M256.45 259.165H331.12V254.449H256.45V259.165Z" fill="#F0F0F0"/>
<path d="M347.31 256.816H418.68V64.6621H347.31V256.816Z" fill="#FAFAFA"/>
<path d="M345.66 71.4824L420.33 71.4824V62.0504L345.66 62.0504V71.4824Z" fill="#F0F0F0"/>
<path d="M345.66 77.2507L420.33 77.2507V72.5346L345.66 72.5346V77.2507Z" fill="#F0F0F0"/>
<path d="M345.66 84.2401L420.33 84.2401V79.5241L345.66 79.5241V84.2401Z" fill="#F0F0F0"/>
<path d="M345.66 91.239L420.33 91.239V86.523L345.66 86.523V91.239Z" fill="#F0F0F0"/>
<path d="M345.66 98.2378L420.33 98.2378V93.5218L345.66 93.5218V98.2378Z" fill="#F0F0F0"/>
<path d="M345.66 105.227L420.33 105.227V100.511L345.66 100.511V105.227Z" fill="#F0F0F0"/>
<path d="M345.66 112.226L420.33 112.226V107.51L345.66 107.51V112.226Z" fill="#F0F0F0"/>
<path d="M345.66 119.234L420.33 119.234V114.518L345.66 114.518V119.234Z" fill="#F0F0F0"/>
<path d="M345.66 126.224L420.33 126.224V121.508L345.66 121.508V126.224Z" fill="#F0F0F0"/>
<path d="M345.66 133.223H420.33V128.507H345.66V133.223Z" fill="#F0F0F0"/>
<path d="M345.66 140.212H420.33V135.496H345.66V140.212Z" fill="#F0F0F0"/>
<path d="M345.66 147.211H420.33V142.495H345.66V147.211Z" fill="#F0F0F0"/>
<path d="M345.66 154.219H420.33V149.503H345.66V154.219Z" fill="#F0F0F0"/>
<path d="M345.66 161.209H420.33V156.493H345.66V161.209Z" fill="#F0F0F0"/>
<path d="M345.66 168.208H420.33V163.492H345.66V168.208Z" fill="#F0F0F0"/>
<path d="M345.66 175.207H420.33V170.491H345.66V175.207Z" fill="#F0F0F0"/>
<path d="M345.66 182.196H420.33V177.48H345.66V182.196Z" fill="#F0F0F0"/>
<path d="M345.66 189.195H420.33V184.479H345.66V189.195Z" fill="#F0F0F0"/>
<path d="M345.66 196.203H420.33V191.487H345.66V196.203Z" fill="#F0F0F0"/>
<path d="M345.66 203.193H420.33V198.477H345.66V203.193Z" fill="#F0F0F0"/>
<path d="M345.66 210.192H420.33V205.476H345.66V210.192Z" fill="#F0F0F0"/>
<path d="M345.66 217.19H420.33V212.474H345.66V217.19Z" fill="#F0F0F0"/>
<path d="M345.66 224.18H420.33V219.464H345.66V224.18Z" fill="#F0F0F0"/>
<path d="M345.66 231.179H420.33V226.463H345.66V231.179Z" fill="#F0F0F0"/>
<path d="M345.66 238.187H420.33V233.471H345.66V238.187Z" fill="#F0F0F0"/>
<path d="M345.66 245.177H420.33V240.461H345.66V245.177Z" fill="#F0F0F0"/>
<path d="M345.66 252.175H420.33V247.459H345.66V252.175Z" fill="#F0F0F0"/>
<path d="M345.66 259.165H420.33V254.449H345.66V259.165Z" fill="#F0F0F0"/>
<path d="M168.9 257.991H240.27L240.27 65.8363H168.9L168.9 257.991Z" fill="#FAFAFA"/>
<path d="M167.25 72.6661L241.92 72.6661V63.2341L167.25 63.2341V72.6661Z" fill="#F0F0F0"/>
<path d="M167.25 74.5732L241.92 74.5732V73.7089L167.25 73.7089V74.5732Z" fill="#F0F0F0"/>
<path d="M167.25 76.5461L241.92 76.5461V75.6818L167.25 75.6818V76.5461Z" fill="#F0F0F0"/>
<path d="M167.25 78.5095L241.92 78.5095V77.6452L167.25 77.6452V78.5095Z" fill="#F0F0F0"/>
<path d="M167.25 80.473L241.92 80.473V79.6087L167.25 79.6087V80.473Z" fill="#F0F0F0"/>
<path d="M167.25 82.4552L241.92 82.4552V81.5909L167.25 81.5909V82.4552Z" fill="#F0F0F0"/>
<path d="M167.25 84.4186L241.92 84.4186V83.5544L167.25 83.5544V84.4186Z" fill="#F0F0F0"/>
<path d="M167.25 86.3914L241.92 86.3914V85.5272L167.25 85.5272V86.3914Z" fill="#F0F0F0"/>
<path d="M167.25 88.3549L241.92 88.3549V87.4906L167.25 87.4906V88.3549Z" fill="#F0F0F0"/>
<path d="M167.25 90.3277L241.92 90.3277V89.4634L167.25 89.4634V90.3277Z" fill="#F0F0F0"/>
<path d="M167.25 92.2912L241.92 92.2912V91.4269L167.25 91.4269V92.2912Z" fill="#F0F0F0"/>
<path d="M167.25 94.264L241.92 94.264V93.3997L167.25 93.3997V94.264Z" fill="#F0F0F0"/>
<path d="M167.25 96.2275L241.92 96.2275V95.3632L167.25 95.3632V96.2275Z" fill="#F0F0F0"/>
<path d="M167.25 98.2003L241.92 98.2003V97.336L167.25 97.336V98.2003Z" fill="#F0F0F0"/>
<path d="M167.25 100.173L241.92 100.173V99.3088L167.25 99.3088V100.173Z" fill="#F0F0F0"/>
<path d="M167.25 102.137L241.92 102.137V101.272L167.25 101.272V102.137Z" fill="#F0F0F0"/>
<path d="M167.25 104.109L241.92 104.109V103.245L167.25 103.245V104.109Z" fill="#F0F0F0"/>
<path d="M167.25 106.073L241.92 106.073V105.209L167.25 105.209V106.073Z" fill="#F0F0F0"/>
<path d="M167.25 108.046L241.92 108.046V107.181L167.25 107.181V108.046Z" fill="#F0F0F0"/>
<path d="M79.6998 257.991H151.07L151.07 65.8363H79.6998L79.6998 257.991Z" fill="#FAFAFA"/>
<path d="M78.04 72.6661L152.71 72.6661V63.2341L78.04 63.2341V72.6661Z" fill="#F0F0F0"/>
<path d="M78.04 74.5732L152.71 74.5732V73.7089L78.04 73.7089V74.5732Z" fill="#F0F0F0"/>
<path d="M78.04 76.5461L152.71 76.5461V75.6818L78.04 75.6818V76.5461Z" fill="#F0F0F0"/>
<path d="M78.04 78.5095L152.71 78.5095V77.6452L78.04 77.6452V78.5095Z" fill="#F0F0F0"/>
<path d="M78.04 80.473L152.71 80.473V79.6087L78.04 79.6087V80.473Z" fill="#F0F0F0"/>
<path d="M78.04 82.4552L152.71 82.4552V81.5909L78.04 81.5909V82.4552Z" fill="#F0F0F0"/>
<path d="M78.04 84.4186L152.71 84.4186V83.5544L78.04 83.5544V84.4186Z" fill="#F0F0F0"/>
<path d="M78.04 86.3914L152.71 86.3914V85.5272L78.04 85.5272V86.3914Z" fill="#F0F0F0"/>
<path d="M78.04 88.3549L152.71 88.3549V87.4906L78.04 87.4906V88.3549Z" fill="#F0F0F0"/>
<path d="M78.04 90.3277L152.71 90.3277V89.4634L78.04 89.4634V90.3277Z" fill="#F0F0F0"/>
<path d="M78.04 92.2912L152.71 92.2912V91.4269L78.04 91.4269V92.2912Z" fill="#F0F0F0"/>
<path d="M78.04 94.264L152.71 94.264V93.3997L78.04 93.3997V94.264Z" fill="#F0F0F0"/>
<path d="M78.04 96.2275L152.71 96.2275V95.3632L78.04 95.3632V96.2275Z" fill="#F0F0F0"/>
<path d="M78.04 98.2003L152.71 98.2003V97.336L78.04 97.336V98.2003Z" fill="#F0F0F0"/>
<path d="M78.04 100.173L152.71 100.173V99.3088L78.04 99.3088V100.173Z" fill="#F0F0F0"/>
<path d="M78.04 102.137L152.71 102.137V101.272L78.04 101.272V102.137Z" fill="#F0F0F0"/>
<path d="M78.04 104.109L152.71 104.109V103.245L78.04 103.245V104.109Z" fill="#F0F0F0"/>
<path d="M78.04 106.073L152.71 106.073V105.209L78.04 105.209V106.073Z" fill="#F0F0F0"/>
<path d="M78.04 108.046L152.71 108.046V107.181L78.04 107.181V108.046Z" fill="#F0F0F0"/>
<path d="M263.95 39.2777C265.874 31.6173 260.824 23.9417 252.67 22.1337C244.516 20.3257 236.346 25.0699 234.421 32.7303C232.497 40.3906 237.547 48.0663 245.701 49.8743C253.855 51.6823 262.025 46.938 263.95 39.2777Z" fill="#F0F0F0"/>
<path d="M261.934 37.9647C263.075 31.3581 258.3 25.1331 251.268 24.0607C244.235 22.9883 237.609 27.4746 236.467 34.0812C235.326 40.6878 240.101 46.9129 247.134 47.9853C254.166 49.0577 260.792 44.5713 261.934 37.9647Z" fill="#FAFAFA"/>
<path d="M248.58 37.1081C248.409 37.1105 248.24 37.0717 248.09 36.9954L242.09 33.8106C241.86 33.6883 241.69 33.4851 241.619 33.2456C241.548 33.0061 241.58 32.7498 241.71 32.533C241.774 32.4246 241.861 32.3292 241.965 32.2525C242.069 32.1758 242.188 32.1191 242.316 32.0859C242.443 32.0527 242.576 32.0436 242.707 32.0591C242.839 32.0745 242.965 32.1143 243.08 32.176L247.56 34.5622V27.7042C247.56 27.4551 247.665 27.2161 247.853 27.04C248.04 26.8638 248.295 26.7648 248.56 26.7648C248.825 26.7648 249.08 26.8638 249.267 27.04C249.455 27.2161 249.56 27.4551 249.56 27.7042V36.1593C249.561 36.3248 249.515 36.4876 249.427 36.6311C249.339 36.7746 249.213 36.8938 249.06 36.9766C248.914 37.0579 248.749 37.1032 248.58 37.1081Z" fill="#E0E0E0"/>
<path d="M250 350C357.083 350 443.89 345.239 443.89 339.365C443.89 333.492 357.083 328.731 250 328.731C142.918 328.731 56.1101 333.492 56.1101 339.365C56.1101 345.239 142.918 350 250 350Z" fill="#F5F5F5"/>
<path d="M264 297.194C264 297.194 271.76 288.523 276.72 292.562C281.68 296.602 279.17 305.179 273.45 305.461C270.058 305.633 266.71 304.671 264 302.746V297.194Z" fill="#82A4D8"/>
<path opacity="0.2" d="M264 297.194C264 297.194 271.76 288.523 276.72 292.562C281.68 296.602 279.17 305.179 273.45 305.461C270.058 305.633 266.71 304.671 264 302.746V297.194Z" fill="white"/>
<path d="M232.41 275.201C232.41 275.201 225.9 268.794 221.87 269.884C217.84 270.974 218.25 286.277 230.76 280.077L232.41 275.201Z" fill="#82A4D8"/>
<path opacity="0.3" d="M232.41 275.201C232.41 275.201 225.9 268.794 221.87 269.884C217.84 270.974 218.25 286.277 230.76 280.077L232.41 275.201Z" fill="white"/>
<path d="M255.67 323.01C255.67 323.01 277.07 295.512 259.67 289.941C242.27 284.37 239.2 312.065 244.17 319.778C249.14 327.491 255.67 323.01 255.67 323.01Z" fill="#82A4D8"/>
<path d="M245.75 266.709C245.75 266.709 232.47 237.755 252.13 236.881C271.79 236.008 273.94 265.591 251.31 269.884L245.75 266.709Z" fill="#82A4D8"/>
<path opacity="0.3" d="M255.67 323.01C255.67 323.01 277.07 295.512 259.67 289.941C242.27 284.37 239.2 312.065 244.17 319.778C249.14 327.491 255.67 323.01 255.67 323.01Z" fill="white"/>
<path opacity="0.3" d="M245.75 266.709C245.75 266.709 232.47 237.755 252.13 236.881C271.79 236.008 273.94 265.591 251.31 269.884L245.75 266.709Z" fill="white"/>
<path d="M250.46 290.411C250.46 290.411 256.91 264.849 244.46 262.81C232.01 260.771 219.81 283.872 245.46 295.484C245.52 295.484 249.92 292.919 250.46 290.411Z" fill="#82A4D8"/>
<path opacity="0.2" d="M250.46 290.411C250.46 290.411 256.91 264.849 244.46 262.81C232.01 260.771 219.81 283.872 245.46 295.484C245.52 295.484 249.92 292.919 250.46 290.411Z" fill="white"/>
<path d="M271.07 319.111H235.15L238.15 340.709H268.07L271.07 319.111Z" fill="#263238"/>
<path d="M252.39 264.642C253.19 263.853 253.97 263.064 254.68 262.209C255.418 261.385 256.106 260.522 256.74 259.625C258.023 257.86 259.099 255.971 259.95 253.989C260.776 252.013 261.262 249.926 261.39 247.807V246.21C261.34 245.675 261.25 245.148 261.19 244.613C261.19 244.35 261.19 244.077 261.11 243.814L260.9 243.035C260.76 242.509 260.64 241.983 260.51 241.438C261.525 243.432 262.074 245.607 262.12 247.816C262.146 250.044 261.711 252.255 260.84 254.327C259.962 256.378 258.777 258.302 257.32 260.039C255.91 261.779 254.251 263.328 252.39 264.642V264.642Z" fill="#82A4D8"/>
<path d="M257.1 239.794C255.046 240.546 253.177 241.683 251.608 243.137C250.038 244.591 248.8 246.33 247.97 248.249L247.4 249.695C247.23 250.184 247.14 250.691 247 251.189C246.747 252.198 246.56 253.221 246.44 254.252C246.33 255.285 246.33 256.328 246.28 257.38C246.23 258.432 246.37 259.475 246.37 260.546C246.14 259.503 245.98 258.46 245.79 257.408C245.6 256.356 245.66 255.276 245.67 254.205C245.74 252.041 246.207 249.906 247.05 247.892C247.941 245.878 249.309 244.082 251.05 242.64C251.918 241.93 252.871 241.319 253.89 240.818C254.906 240.341 255.986 239.997 257.1 239.794V239.794Z" fill="#82A4D8"/>
<path d="M242.06 264.642C240.721 265.29 239.528 266.177 238.55 267.254C237.562 268.297 236.783 269.5 236.25 270.805C235.707 272.095 235.37 273.453 235.25 274.835C235.22 275.176 235.22 275.518 235.25 275.859C235.25 276.197 235.25 276.545 235.25 276.883C235.339 277.562 235.493 278.231 235.71 278.884C236.636 281.548 238.066 284.033 239.93 286.221C240.832 287.357 241.797 288.449 242.82 289.49C243.82 290.561 244.88 291.566 245.98 292.562C243.519 290.857 241.286 288.88 239.33 286.672C238.333 285.566 237.43 284.388 236.63 283.149C235.836 281.89 235.205 280.547 234.75 279.147C234.528 278.437 234.371 277.711 234.28 276.977C234.255 276.601 234.255 276.225 234.28 275.85C234.265 275.479 234.285 275.108 234.34 274.741C234.504 273.283 234.916 271.859 235.56 270.523C236.175 269.187 237.066 267.98 238.182 266.97C239.298 265.96 240.616 265.169 242.06 264.642Z" fill="#82A4D8"/>
<path d="M245.75 266.709C245.58 267.695 245.42 268.672 245.33 269.659C245.209 270.635 245.142 271.616 245.13 272.599C245.116 273.567 245.183 274.534 245.33 275.493C245.435 276.419 245.753 277.313 246.26 278.114C246.559 278.548 246.824 279.004 247.05 279.476C247.273 279.953 247.454 280.446 247.59 280.951C247.836 281.943 247.97 282.957 247.99 283.976C248.043 285.984 247.811 287.99 247.3 289.941C247.3 288.945 247.39 287.959 247.37 286.963C247.38 285.981 247.33 284.999 247.22 284.023C247.118 282.104 246.495 280.241 245.41 278.612C244.852 277.692 244.511 276.669 244.41 275.615C244.295 274.6 244.295 273.576 244.41 272.561C244.583 270.564 245.034 268.596 245.75 266.709V266.709Z" fill="#82A4D8"/>
<path d="M254.48 292.562C254.008 292.83 253.619 293.209 253.35 293.661C253.069 294.103 252.825 294.565 252.62 295.042C252.203 295.994 251.852 296.97 251.57 297.964C250.99 299.956 250.48 301.972 250.04 304.014C249.58 306.043 249.18 308.091 248.77 310.13C248.56 311.154 248.37 312.178 248.19 313.211C248.01 314.245 247.81 315.259 247.66 316.302C247.602 314.202 247.716 312.101 248 310.017C248.24 307.932 248.6 305.865 249.05 303.807C249.494 301.749 250.089 299.721 250.83 297.739C251.205 296.739 251.657 295.766 252.18 294.826C252.457 294.364 252.775 293.924 253.13 293.511C253.471 293.077 253.941 292.747 254.48 292.562Z" fill="#82A4D8"/>
<path d="M260.55 293.455C261.481 295.225 262.086 297.131 262.34 299.091C262.605 301.07 262.524 303.075 262.1 305.029C262.01 305.52 261.88 306.003 261.71 306.475C261.55 306.945 261.42 307.415 261.22 307.894C260.414 309.733 259.3 311.439 257.92 312.948C257.579 313.319 257.211 313.667 256.82 313.991C256.44 314.329 256.06 314.667 255.67 314.987C256.992 313.509 258.142 311.903 259.1 310.196C260.05 308.516 260.724 306.71 261.1 304.841C261.512 302.973 261.66 301.062 261.54 299.157C261.434 297.228 261.102 295.316 260.55 293.455V293.455Z" fill="#82A4D8"/>
<path d="M227.36 278.33C226.795 278.54 226.187 278.633 225.58 278.602C224.961 278.579 224.351 278.452 223.78 278.226C223.2 277.997 222.681 277.651 222.26 277.212C221.847 276.772 221.577 276.231 221.48 275.652C221.889 276.021 222.326 276.36 222.79 276.667C223.228 276.941 223.693 277.174 224.18 277.362C225.217 277.749 226.279 278.072 227.36 278.33V278.33Z" fill="#82A4D8"/>
<path d="M228.69 274.102L227.1 273.379C226.605 273.162 226.094 272.98 225.57 272.834C225.076 272.703 224.564 272.636 224.05 272.637C223.49 272.679 222.938 272.793 222.41 272.975C222.761 272.466 223.293 272.09 223.91 271.913C224.546 271.753 225.215 271.753 225.85 271.913C226.456 272.084 227.02 272.365 227.51 272.74C228.005 273.107 228.408 273.572 228.69 274.102V274.102Z" fill="#82A4D8"/>
<path d="M267.59 298.481C267.954 297.76 268.436 297.097 269.02 296.517C269.602 295.919 270.276 295.406 271.02 294.995C271.792 294.543 272.69 294.317 273.6 294.347C274.048 294.364 274.486 294.475 274.882 294.671C275.278 294.868 275.623 295.146 275.89 295.484C275.192 295.142 274.402 295.002 273.62 295.08C272.869 295.18 272.149 295.43 271.51 295.813C270.14 296.617 268.83 297.508 267.59 298.481V298.481Z" fill="#82A4D8"/>
<path d="M267.59 302.746C269.513 302.719 271.433 302.584 273.34 302.342C274.268 302.228 275.167 301.964 276 301.562C276.82 301.15 277.466 300.487 277.83 299.683C277.821 300.175 277.69 300.658 277.447 301.094C277.204 301.529 276.856 301.905 276.43 302.192C275.584 302.772 274.598 303.146 273.56 303.281C272.568 303.429 271.56 303.46 270.56 303.375C269.544 303.295 268.544 303.083 267.59 302.746V302.746Z" fill="#82A4D8"/>
<path d="M363.43 117.938H295.02V207.749H363.43V117.938Z" fill="#82A4D8"/>
<path d="M409.84 207.749H363.43V117.938L409.84 133.608V207.749Z" fill="#82A4D8"/>
<path opacity="0.2" d="M409.84 207.749H363.43V117.938L409.84 133.608V207.749Z" fill="white"/>
<path d="M409.84 195.658H295.02V207.749H409.84V195.658Z" fill="#263238"/>
<path opacity="0.3" d="M409.84 195.658H295.02V207.749H409.84V195.658Z" fill="white"/>
<path d="M361.07 181.67L374.28 167.184L396.6 185.184L377.27 198.993L349.38 198.655L335.59 178.1L361.07 181.67Z" fill="#82A4D8"/>
<path d="M361.07 181.67L377.27 198.993L349.38 198.655L335.59 178.1L361.07 181.67Z" fill="white"/>
<path opacity="0.8" d="M361.07 181.67L374.28 167.184L396.6 185.184L377.27 198.993L361.07 181.67Z" fill="white"/>
<path d="M341.43 207.749H295.02V117.938L341.43 133.608V207.749Z" fill="#82A4D8"/>
<path opacity="0.6" d="M341.43 207.749H295.02V117.938L341.43 133.608V207.749Z" fill="white"/>
<path opacity="0.5" d="M315.05 135.788L335.17 176.898L298.51 186.884L315.05 135.788Z" fill="white"/>
<path d="M305 159.781L306.13 159.086L307.25 165.662L310.44 163.717L310.65 164.939L306.33 167.578L305 159.781Z" fill="#82A4D8"/>
<path d="M315.32 159.283L311.67 161.51C311.95 162.299 312.61 162.515 313.42 162.017C313.963 161.678 314.371 161.179 314.58 160.598L315.31 161.106C315.013 161.97 314.409 162.713 313.6 163.21C312.04 164.149 310.81 163.501 310.51 161.735C310.358 160.894 310.452 160.03 310.784 159.235C311.115 158.441 311.67 157.746 312.39 157.226C313.75 156.399 314.95 157.01 315.27 158.86C315.29 158.973 315.31 159.152 315.32 159.283ZM311.51 160.598L314.15 158.982C313.91 158.184 313.3 157.902 312.58 158.344C312.206 158.608 311.911 158.959 311.723 159.362C311.536 159.766 311.462 160.208 311.51 160.645V160.598Z" fill="#82A4D8"/>
<path d="M319.56 159.133C319.331 159.558 318.986 159.918 318.56 160.176C317.56 160.796 316.84 160.457 316.62 159.152L316.13 156.333L315.36 156.803L315.17 155.694L315.94 155.225L315.71 153.862L316.8 153.205L317.03 154.558L318.27 153.797L318.46 154.905L317.22 155.666L317.7 158.485C317.8 159.067 318.08 159.236 318.5 158.982C318.744 158.826 318.941 158.612 319.07 158.362L319.56 159.133Z" fill="#82A4D8"/>
<path d="M320.31 150.837C320.363 151.193 320.363 151.553 320.31 151.908L320.13 153.787L319.42 154.219L319.48 152.341C319.21 152.341 319 152.181 318.93 151.768C318.879 151.518 318.903 151.259 319.001 151.022C319.098 150.785 319.264 150.577 319.48 150.424C319.86 150.105 320.22 150.311 320.31 150.837Z" fill="#82A4D8"/>
<path d="M321.86 157.432L322.1 156.127C322.707 156.196 323.32 156.053 323.82 155.723C324.51 155.3 324.75 154.886 324.68 154.473C324.49 153.336 321.79 156.164 321.39 153.787C321.333 153.168 321.465 152.546 321.772 151.995C322.078 151.444 322.546 150.987 323.12 150.678C323.653 150.318 324.294 150.127 324.95 150.133L324.71 151.439C324.207 151.402 323.707 151.535 323.3 151.814C322.64 152.218 322.38 152.688 322.44 153.073C322.65 154.276 325.34 151.448 325.74 153.778C325.791 154.405 325.649 155.033 325.329 155.587C325.01 156.14 324.528 156.595 323.94 156.897C323.346 157.32 322.601 157.512 321.86 157.432V157.432Z" fill="#82A4D8"/>
<path d="M309.4 170.509L307.75 182.196L306.37 183.042L301.37 175.385L302.89 174.446L306.69 180.374L307.95 171.364L309.4 170.509Z" fill="#82A4D8"/>
<path d="M310.41 175.235C310.168 173.834 310.34 172.397 310.908 171.082C311.476 169.766 312.417 168.623 313.63 167.776C315.98 166.338 318.07 167.39 318.56 170.256C318.812 171.667 318.644 173.115 318.074 174.442C317.504 175.768 316.554 176.921 315.33 177.771C313 179.152 310.9 178.091 310.41 175.235ZM317.14 171.12C316.81 169.147 315.43 168.414 313.9 169.345C313.098 169.925 312.481 170.699 312.114 171.585C311.748 172.471 311.646 173.434 311.82 174.371C312.16 176.343 313.54 177.076 315.06 176.146C315.866 175.57 316.486 174.795 316.853 173.908C317.22 173.021 317.319 172.057 317.14 171.12Z" fill="#82A4D8"/>
<path d="M320.91 165.164L318.4 166.695L318.15 165.173L324.57 161.256L324.83 162.778L322.32 164.309L323.71 172.454L322.31 173.309L320.91 165.164Z" fill="#82A4D8"/>
<path d="M332.7 165.343L332.96 166.846L327.28 170.312L325.63 160.645L331.15 157.273L331.41 158.776L327.29 161.294L327.72 163.811L331.37 161.575L331.63 163.05L328 165.249L328.46 167.917L332.7 165.343Z" fill="#82A4D8"/>
<path d="M411.7 205.664V340.709H407.07V210.107H365.7V340.709H361.07V210.107H343.7V340.709H339.07V210.107H297.23V340.709H292.59V205.664H411.7Z" fill="#263238"/>
<path opacity="0.3" d="M341.43 205.664V340.709H339.07V210.107H295.02V340.709H292.59V205.664H341.43Z" fill="white"/>
<path opacity="0.3" d="M363.43 210.107H361.07V340.709H363.43V210.107Z" fill="white"/>
<path opacity="0.3" d="M409.39 210.107H407.03V340.709H409.39V210.107Z" fill="white"/>
<path d="M140.87 207.749H209.28V117.938L140.87 117.938V207.749Z" fill="#82A4D8"/>
<path d="M94.45 207.749H140.86V117.938L94.45 133.608V207.749Z" fill="#82A4D8"/>
<path opacity="0.2" d="M94.45 207.749H140.86V117.938L94.45 133.608V207.749Z" fill="white"/>
<path d="M94.45 207.759H209.27V195.668H94.45V207.759Z" fill="#263238"/>
<path opacity="0.3" d="M94.45 207.759H209.27V195.668H94.45V207.759Z" fill="white"/>
<path d="M140.66 184.883L167.87 191.365L150.51 203.108L123.2 196.222L140.66 184.883Z" fill="#82A4D8"/>
<path opacity="0.8" d="M140.66 184.883L167.87 191.365L150.51 203.108L123.2 196.222L140.66 184.883Z" fill="white"/>
<path d="M123.2 196.222L140.66 184.883L166.79 180.965L145.74 194.747L123.2 196.222Z" fill="white"/>
<path d="M162.86 207.749H209.27V117.938L162.86 133.608V207.749Z" fill="#82A4D8"/>
<path opacity="0.6" d="M162.86 207.749H209.27V117.938L162.86 133.608V207.749Z" fill="white"/>
<path opacity="0.5" d="M189.24 135.788L169.12 176.898L205.78 186.884L189.24 135.788Z" fill="white"/>
<path d="M175.09 159.781L176.22 159.086L177.34 165.662L180.53 163.717L180.74 164.939L176.42 167.578L175.09 159.781Z" fill="#82A4D8"/>
<path d="M185.42 159.283L181.77 161.51C182.05 162.299 182.71 162.515 183.52 162.017C184.056 161.673 184.46 161.176 184.67 160.598L185.4 161.106C185.103 161.97 184.499 162.713 183.69 163.21C182.13 164.149 180.9 163.501 180.6 161.735C180.449 160.893 180.545 160.028 180.878 159.234C181.211 158.439 181.768 157.745 182.49 157.226C183.85 156.399 185.05 157.01 185.36 158.86C185.38 158.973 185.4 159.152 185.42 159.283ZM181.6 160.645L184.24 159.029C184.01 158.231 183.39 157.949 182.68 158.391C182.311 158.65 182.019 158.993 181.83 159.387C181.641 159.781 181.562 160.214 181.6 160.645V160.645Z" fill="#82A4D8"/>
<path d="M189.65 159.133C189.422 159.558 189.077 159.918 188.65 160.176C187.65 160.796 186.93 160.457 186.65 159.152L186.16 156.333L185.4 156.803L185.21 155.694L185.97 155.225L185.74 153.862L186.83 153.205L187.06 154.558L188.31 153.797L188.5 154.905L187.25 155.666L187.73 158.485C187.83 159.067 188.11 159.236 188.53 158.982C188.777 158.829 188.974 158.614 189.1 158.362L189.65 159.133Z" fill="#82A4D8"/>
<path d="M190.4 150.837C190.458 151.192 190.458 151.554 190.4 151.908L190.22 153.787L189.51 154.219L189.57 152.341C189.31 152.341 189.09 152.181 189.02 151.768C188.971 151.518 188.997 151.26 189.094 151.023C189.191 150.786 189.356 150.579 189.57 150.424C190 150.105 190.31 150.311 190.4 150.837Z" fill="#82A4D8"/>
<path d="M192 157.432L192.24 156.127C192.847 156.198 193.46 156.054 193.96 155.723C194.65 155.3 194.9 154.886 194.82 154.473C194.63 153.336 191.94 156.164 191.53 153.787C191.473 153.168 191.605 152.546 191.912 151.995C192.218 151.444 192.686 150.987 193.26 150.678C193.793 150.318 194.434 150.127 195.09 150.133L194.86 151.439C194.357 151.399 193.856 151.533 193.45 151.814C192.78 152.218 192.52 152.688 192.59 153.073C192.79 154.276 195.48 151.448 195.88 153.778C195.922 154.412 195.766 155.043 195.433 155.596C195.099 156.148 194.601 156.597 194 156.887C193.428 157.295 192.715 157.49 192 157.432V157.432Z" fill="#82A4D8"/>
<path d="M179.49 170.509L177.85 182.196L176.46 183.042L171.46 175.385L172.99 174.446L176.78 180.374L178.05 171.364L179.49 170.509Z" fill="#82A4D8"/>
<path d="M180.5 175.235C180.258 173.833 180.431 172.395 181.001 171.08C181.571 169.764 182.515 168.621 183.73 167.776C186.07 166.338 188.16 167.39 188.65 170.256C188.904 171.666 188.738 173.114 188.17 174.441C187.602 175.768 186.653 176.92 185.43 177.771C183.08 179.152 181 178.091 180.5 175.235ZM187.24 171.12C186.9 169.147 185.52 168.414 184 169.345C183.195 169.922 182.575 170.696 182.208 171.583C181.841 172.47 181.742 173.434 181.92 174.371C182.26 176.343 183.63 177.076 185.16 176.146C185.964 175.568 186.583 174.794 186.95 173.907C187.317 173.021 187.417 172.056 187.24 171.12V171.12Z" fill="#82A4D8"/>
<path d="M191 165.164L188.49 166.695L188.23 165.173L194.65 161.256L194.91 162.778L192.4 164.309L193.79 172.454L192.39 173.309L191 165.164Z" fill="#82A4D8"/>
<path d="M202.79 165.343L203.05 166.846L197.37 170.312L195.72 160.645L201.25 157.273L201.5 158.776L197.38 161.294L197.81 163.811L201.47 161.575L201.72 163.05L198.07 165.286L198.52 167.954L202.79 165.343Z" fill="#82A4D8"/>
<path d="M92.5898 205.664V340.709H97.2198V210.107H138.59V340.709H143.22V210.107H160.59V340.709H165.22V210.107H207.06V340.709H211.7V205.664H92.5898Z" fill="#263238"/>
<path opacity="0.3" d="M162.86 205.664V340.709H165.22V210.107H209.27V340.709H211.7V205.664H162.86Z" fill="white"/>
<path opacity="0.3" d="M143.22 210.107H140.86V340.709H143.22V210.107Z" fill="white"/>
<path opacity="0.3" d="M97.2699 210.107H94.9099V340.709H97.2699V210.107Z" fill="white"/>
<path d="M401.29 240.733L399.97 244.491L398.39 248.953L395.6 256.845L395.11 258.273L392.22 266.446L387.33 280.378C386.65 301.684 374.23 330.516 374.23 330.516L369.81 329.389C371.43 308.495 375.81 283.281 379.5 264.379C380.08 261.41 380.64 258.611 381.18 255.999L381.93 252.42C382.317 250.541 382.683 248.806 383.03 247.215C383.72 243.984 384.3 241.362 384.72 239.512C385.17 237.492 385.43 236.383 385.43 236.383L401.29 240.733Z" fill="#E4897B"/>
<path d="M423.92 236.74L422.92 243.157L421.57 251.612L421.42 252.551L421.13 254.43L420.13 260.847L417.34 278.076C420.53 299.176 413.52 329.576 413.52 329.576L408.96 329.172C406.58 306.513 406.49 278.292 406.82 258.714C406.87 255.68 406.93 252.833 406.99 250.259C406.985 250.181 406.985 250.102 406.99 250.024V249.883C407.12 244.782 407.27 240.724 407.37 238.159C407.46 236.139 407.5 235.04 407.5 235.04L423.92 236.74Z" fill="#E4897B"/>
<path opacity="0.2" d="M385.43 236.412L401.29 240.733L399.97 244.491L398.39 248.953L383 247.243C383.69 244.012 384.27 241.391 384.69 239.54C385.17 237.52 385.43 236.412 385.43 236.412Z" fill="black"/>
<path opacity="0.2" d="M423.92 236.74L422.92 243.157L421.57 251.612L407 249.958V249.817C407.13 244.716 407.28 240.658 407.38 238.093C407.47 236.073 407.51 234.974 407.51 234.974L423.92 236.74Z" fill="black"/>
<path d="M402.86 171.44C402.86 171.44 396.46 180.073 394.03 181.576C391.6 183.079 374.28 181.867 374.28 181.867L373.4 185.418C373.4 185.418 391.18 188.472 394.92 186.593C398.66 184.714 408 174.991 408 174.991L402.86 171.44Z" fill="#E4897B"/>
<path opacity="0.2" d="M402.86 171.44C402.86 171.44 396.46 180.073 394.03 181.576C391.6 183.079 374.28 181.867 374.28 181.867L373.4 185.418C373.4 185.418 391.18 188.472 394.92 186.593C398.66 184.714 408 174.991 408 174.991L402.86 171.44Z" fill="black"/>
<path d="M379 181.369L379.59 187.203C379.59 187.203 402.13 189.815 404.59 188.566C407.05 187.316 409.1 175.836 409.1 175.836L399 175.009C399 175.009 390.81 180.693 389.89 181.369C388.97 182.046 379 181.369 379 181.369Z" fill="#263238"/>
<path opacity="0.3" d="M379 181.369L379.59 187.203C379.59 187.203 402.13 189.815 404.59 188.566C407.05 187.316 409.1 175.836 409.1 175.836L399 175.009C399 175.009 390.81 180.693 389.89 181.369C388.97 182.046 379 181.369 379 181.369Z" fill="white"/>
<path d="M374.28 181.867C373.293 180.853 372.142 179.991 370.87 179.312C369.468 178.766 367.976 178.448 366.46 178.373L365.74 182.966C366.856 183.792 368.051 184.518 369.31 185.137C370.647 185.445 372.03 185.537 373.4 185.409L374.28 181.867Z" fill="#E4897B"/>
<path opacity="0.2" d="M374.28 181.867C373.293 180.853 372.142 179.991 370.87 179.312C369.468 178.766 367.976 178.448 366.46 178.373L365.74 182.966C366.856 183.792 368.051 184.518 369.31 185.137C370.647 185.445 372.03 185.537 373.4 185.409L374.28 181.867Z" fill="black"/>
<path d="M381 150.678C380.966 150.679 380.932 150.672 380.901 150.659C380.87 150.646 380.842 150.627 380.82 150.603C380.483 150.336 380.085 150.144 379.657 150.041C379.23 149.939 378.783 149.928 378.35 150.011C378.318 150.018 378.285 150.019 378.252 150.013C378.22 150.008 378.189 149.997 378.161 149.98C378.133 149.964 378.109 149.942 378.09 149.917C378.071 149.891 378.057 149.863 378.05 149.832C378.038 149.77 378.053 149.706 378.09 149.653C378.127 149.601 378.185 149.564 378.25 149.55C378.765 149.451 379.297 149.465 379.805 149.591C380.313 149.716 380.784 149.95 381.18 150.274C381.227 150.319 381.253 150.38 381.253 150.443C381.253 150.506 381.227 150.567 381.18 150.612C381.13 150.653 381.067 150.677 381 150.678Z" fill="#263238"/>
<path d="M379.76 153.43C379.351 154.315 378.83 155.151 378.21 155.92C378.407 156.141 378.666 156.306 378.957 156.397C379.248 156.489 379.561 156.502 379.86 156.437L379.76 153.43Z" fill="#DE5753"/>
<path d="M378.58 151.955C378.58 152.416 378.9 152.782 379.23 152.763C379.56 152.745 379.81 152.35 379.78 151.88C379.75 151.411 379.46 151.054 379.12 151.072C378.78 151.091 378.55 151.486 378.58 151.955Z" fill="#263238"/>
<path d="M379.26 151.082L378.16 150.743C378.16 150.743 378.75 151.57 379.26 151.082Z" fill="#263238"/>
<path d="M393.39 160.645C393.337 160.705 393.277 160.759 393.21 160.805C392.376 161.608 391.38 162.246 390.28 162.684C387.06 163.839 384.73 163.708 383.04 162.487C380.65 160.608 379.58 156.944 379.21 152.378C378.996 150.566 379.09 148.733 379.49 146.948V146.864C379.505 146.797 379.525 146.731 379.55 146.666C379.815 145.655 380.346 144.721 381.093 143.952C381.841 143.182 382.782 142.6 383.83 142.26C384.738 141.943 385.681 141.719 386.64 141.593C396 140.269 399.86 154.689 393.39 160.645Z" fill="#E4897B"/>
<path opacity="0.2" d="M393.21 160.824C392.359 161.579 391.356 162.167 390.26 162.552C387.04 163.708 384.69 163.492 383 162.224C385.057 162.432 387.13 161.999 388.9 160.993C389.558 160.66 390.288 160.472 391.034 160.443C391.781 160.414 392.525 160.544 393.21 160.824V160.824Z" fill="black"/>
<path d="M390 138.813C390 138.813 383.49 138.127 380.36 140.954C376.71 144.252 375.59 147.324 381.05 151.157C381.05 151.157 391.14 146.572 394.76 146.807C396.868 146.931 398.962 147.217 401.02 147.662C400.78 141.02 393.3 137.018 390 138.813Z" fill="#263238"/>
<path d="M388.63 163.031C389.189 163.266 389.686 163.614 390.087 164.05C390.487 164.485 390.78 164.998 390.946 165.552C391.112 166.106 391.147 166.687 391.047 167.255C390.948 167.822 390.716 168.363 390.37 168.837L404 165.258C404 165.258 397.56 162.618 397 158.362C397 158.362 389.86 157.827 388.63 163.031Z" fill="#E4897B"/>
<path d="M379.47 146.882C379.652 148.733 380.415 150.49 381.661 151.934C382.907 153.377 384.581 154.44 386.47 154.99C386.47 154.99 390.09 161.077 394.06 160.626C399.46 160.053 403.15 152.237 400.21 145.144C396.43 135.985 381 137.159 379.47 146.882Z" fill="#263238"/>
<path d="M383.07 153.628C382.93 152.688 383.52 150.931 385.15 150.941C386.78 150.95 388.32 154.699 384.38 156.051C383.81 156.249 383.36 155.638 383.07 153.628Z" fill="#E4897B"/>
<path d="M423.28 196.006C423.28 196.006 433.12 217.613 423.92 248.916L381.64 245.365C387.16 219.952 394.64 206.067 394.64 206.067L396 193.282L423.28 196.006Z" fill="#82A4D8"/>
<path d="M389.81 166.066C390.927 164.483 392.423 163.168 394.179 162.226C395.935 161.285 397.901 160.743 399.92 160.645L403.39 164.093L389.81 166.066Z" fill="#82A4D8"/>
<path d="M417.2 200.91L402.08 202.394V199.163L416.76 197.8C416.87 198.589 417.05 199.877 417.2 200.91Z" fill="#263238"/>
<path d="M400.9 199.275V202.507L394.64 203.118V199.858L400.9 199.275Z" fill="#263238"/>
<path d="M417.96 197.688L424.31 197.096L425.11 200.13L418.55 200.769L417.96 197.688Z" fill="#263238"/>
<path d="M353.61 193.695C352.411 192.907 351.088 192.298 349.69 191.891C348.191 191.65 346.659 191.65 345.16 191.891L345.52 196.523C346.807 197.099 348.145 197.568 349.52 197.922C350.898 197.947 352.271 197.754 353.58 197.349L353.61 193.695Z" fill="#E4897B"/>
<path d="M423.28 196.006L395.4 198.937L381.54 169.598C381.54 169.598 391.19 161.782 409.06 164.309C409.06 164.309 415.46 166.987 423.28 196.006Z" fill="#263238"/>
<path opacity="0.5" d="M423.27 196.006L395.4 198.937L388.81 184.996L386.01 179.087L381.54 169.598C381.54 169.598 391.18 161.791 409.06 164.309C409.06 164.309 415.45 166.987 423.27 196.006Z" fill="white"/>
<path opacity="0.2" d="M388.81 184.996L386.01 179.087C386.275 178.572 386.634 178.104 387.07 177.706C388.006 178.676 388.659 179.857 388.964 181.135C389.269 182.413 389.216 183.743 388.81 184.996Z" fill="black"/>
<path d="M379.1 177.706C379.1 177.706 374.85 187.438 372.82 189.392C370.79 191.346 353.61 193.695 353.61 193.695L353.56 197.34C353.56 197.34 371.63 196.711 374.85 194.118C378.07 191.525 385 180.12 385 180.12L379.1 177.706Z" fill="#E4897B"/>
<path d="M381.54 169.598C379.15 171.637 373.54 188.96 372.82 189.392C372.1 189.824 356.82 193.225 356.82 193.225C356.82 193.225 358.55 198.223 358.54 197.922C358.53 197.622 373.96 196.805 375.83 196.138C377.7 195.471 387.83 180.364 387.83 180.364C387.192 177.76 386.225 175.237 384.95 172.849C383.2 169.936 381.54 169.598 381.54 169.598Z" fill="#263238"/>
<path opacity="0.5" d="M381.54 169.598C379.15 171.637 373.54 188.96 372.82 189.392C372.1 189.824 356.82 193.225 356.82 193.225C356.82 193.225 358.55 198.223 358.54 197.922C358.53 197.622 373.96 196.805 375.83 196.138C377.7 195.471 387.83 180.364 387.83 180.364C387.192 177.76 386.225 175.237 384.95 172.849C383.2 169.936 381.54 169.598 381.54 169.598Z" fill="white"/>
<path d="M355.94 193.282L357.34 192.474L359.49 198.298H357.34L355.94 193.282Z" fill="#82A4D8"/>
<path d="M362.61 339.422C363.389 338.829 364.277 338.377 365.23 338.088V338.088C365.23 338.088 368.08 335.429 369.45 327.435L373.18 326.495C373.812 326.35 374.477 326.391 375.083 326.613C375.69 326.835 376.209 327.226 376.57 327.735C376.67 327.879 376.751 328.033 376.81 328.195C377 329.054 377.13 329.923 377.2 330.798C377.411 333.719 377.431 336.649 377.26 339.572H376.58L376.32 334.067C376.22 332.188 374.69 334.386 374.26 336.397C373.83 338.407 372.89 340.559 368.53 340.662C363.43 340.784 361.32 340.596 362.61 339.422Z" fill="#263238"/>
<path d="M376.7 327.867C376.918 326.429 377.252 325.01 377.7 323.62H368.7C368.7 323.62 369.7 327.312 368.88 330.093C373.08 329.022 376.7 327.867 376.7 327.867Z" fill="#263238"/>
<path d="M401 339.422C401.779 338.829 402.667 338.377 403.62 338.088V338.088C403.62 338.088 406.47 335.429 407.84 327.435L411.57 326.495C412.203 326.35 412.867 326.391 413.474 326.613C414.08 326.835 414.599 327.226 414.96 327.735C415.06 327.879 415.141 328.033 415.2 328.195C415.388 329.055 415.522 329.924 415.6 330.798C415.804 333.719 415.821 336.649 415.65 339.572H415L414.74 334.067C414.64 332.188 413.11 334.386 412.68 336.397C412.25 338.407 411.31 340.559 406.95 340.662C401.87 340.784 399.75 340.596 401 339.422Z" fill="#263238"/>
<path d="M415.13 327.867C415.348 326.429 415.682 325.01 416.13 323.62H407.13C407.13 323.62 408.13 327.312 407.3 330.093C411.52 329.022 415.13 327.867 415.13 327.867Z" fill="#263238"/>
<path d="M391.78 139.508C391.78 139.508 394.95 131.1 403.39 134.444C411.83 137.789 405.28 146.441 408.02 151.157C410.76 155.873 406.89 160.213 404.74 158.982C405.042 158.953 405.332 158.86 405.59 158.71C405.847 158.56 406.065 158.357 406.227 158.117C406.389 157.876 406.49 157.604 406.524 157.321C406.557 157.038 406.522 156.752 406.42 156.484C405.76 154.266 401.98 154.999 400.42 148.564C398.86 142.129 396.33 144.806 396.33 144.806L391.78 139.508Z" fill="#263238"/>
<path d="M130.87 168.236C128.53 171.233 111.97 168.236 111.97 168.236V164.14L125.4 163.154L130.87 168.236Z" fill="#263238"/>
<path opacity="0.2" d="M130.87 168.236C128.53 171.233 111.97 168.236 111.97 168.236V164.14L125.4 163.154L130.87 168.236Z" fill="black"/>
<path d="M83.2901 146.244C79.9501 147.85 85.0501 163.304 90.1501 168.452C95.2501 173.6 92.0801 156.596 92.0801 156.596L83.2901 146.244Z" fill="#263238"/>
<path opacity="0.2" d="M83.2901 146.244C79.9501 147.85 85.0501 163.304 90.1501 168.452C95.2501 173.6 92.0801 156.596 92.0801 156.596L83.2901 146.244Z" fill="black"/>
<path d="M109.46 143.125L109.52 147.747L105.76 147.315V143.125C105.76 143.125 105.35 142.495 104.9 141.706C104.504 141.052 104.169 140.367 103.9 139.658C103.44 138.333 108.21 134.435 108.21 134.435C108.21 134.435 108.51 134.698 108.93 135.102C109.93 136.041 111.75 137.751 111.93 138.39C112.26 139.292 109.46 143.125 109.46 143.125Z" fill="#9F5B53"/>
<path opacity="0.2" d="M109 135.102C108.48 137.122 107.29 140.353 105 141.678C104.604 141.024 104.269 140.339 104 139.63C103.54 138.305 108.31 134.407 108.31 134.407C108.31 134.407 108.53 134.698 109 135.102Z" fill="black"/>
<path d="M118.37 334.743L125.28 335.429L125.63 331.662L126.58 321.422L119.66 320.727L118.61 332.047L118.37 334.743Z" fill="#9F5B53"/>
<path d="M83.8601 333.917H90.5601L90.6201 332.498L90.6301 332.32L90.9701 323.188L90.9801 323L91.1101 319.506H84.4101L83.8601 333.917Z" fill="#9F5B53"/>
<path opacity="0.2" d="M119.66 320.727L118.61 332.047L125.63 331.662L126.58 321.422L119.66 320.727Z" fill="black"/>
<path opacity="0.2" d="M83.9001 333.118H83.9101L90.6201 332.32H90.6301L90.9801 323.508H90.9701L84.2501 324.015L83.9101 332.846L83.9001 333.118Z" fill="black"/>
<path d="M91.4901 333.503H83.3501C83.2166 333.503 83.0871 333.545 82.9833 333.624C82.8794 333.703 82.8077 333.813 82.7801 333.935L81.4601 339.572C81.4093 339.812 81.4604 340.062 81.6023 340.267C81.7443 340.472 81.9659 340.617 82.2201 340.671C82.293 340.681 82.3671 340.681 82.4401 340.671C85.0701 340.671 86.9901 340.483 90.3001 340.483C92.3001 340.483 98.4801 340.681 101.3 340.681C104.12 340.681 104.48 338.069 103.3 337.862C98.1401 336.801 94.3001 335.335 92.6001 333.945C92.3037 333.67 91.9065 333.512 91.4901 333.503Z" fill="#263238"/>
<path d="M126 333.344H117.86C117.727 333.345 117.598 333.388 117.495 333.467C117.392 333.545 117.319 333.654 117.29 333.776L115.97 339.412C115.916 339.654 115.966 339.906 116.108 340.113C116.25 340.32 116.474 340.467 116.73 340.521H116.95C119.59 340.521 121.5 340.324 124.81 340.324C126.81 340.324 132.99 340.53 135.81 340.53C138.63 340.53 138.99 337.919 137.81 337.712C132.64 336.66 128.75 335.194 127.1 333.795C126.808 333.518 126.415 333.356 126 333.344V333.344Z" fill="#263238"/>
<path d="M127.21 330.685H117.38C117.38 330.685 118.18 251.198 107.55 224.359C106.8 233.227 105.96 242.443 105.13 250.109C104.61 254.862 104.13 258.94 103.62 262.049C100.52 282.069 92.71 331.493 92.71 331.493H83C83 331.493 84.15 284.135 85.31 264.454C86.58 243.1 87.12 196.147 87.17 192.117H122.74C126.12 208.989 134.8 276.263 127.21 330.685Z" fill="#82A4D8"/>
<path opacity="0.7" d="M127.21 330.685H117.38C117.38 330.685 118.18 251.198 107.55 224.359C106.8 233.227 105.96 242.443 105.13 250.109C104.61 254.862 104.13 258.94 103.62 262.049C100.52 282.069 92.71 331.493 92.71 331.493H83C83 331.493 84.15 284.135 85.31 264.454C86.58 243.1 87.12 196.147 87.17 192.117H122.74C126.12 208.989 134.8 276.263 127.21 330.685Z" fill="white"/>
<path opacity="0.2" d="M107.55 224.349C106.8 233.227 105.96 242.452 105.13 250.118C103.92 239.042 102.44 231.151 102.44 231.151C102.44 231.151 101.05 230.08 97.23 224.349C93.41 218.618 97.23 207.937 97.23 207.937C97.11 217.867 107.55 224.349 107.55 224.349Z" fill="black"/>
<path d="M128.31 328.111L127.83 330.713H116.22V328.318L128.31 328.111Z" fill="#82A4D8"/>
<path d="M93.8298 329.116L92.7098 331.521H82.9698L82.3298 329.116H93.8298Z" fill="#82A4D8"/>
<path d="M86.96 189.59V192.586H122.82L122.4 189.167L86.96 189.59Z" fill="black"/>
<path d="M98.9999 188.631H97.9199V193.366H98.9999V188.631Z" fill="#82A4D8"/>
<path d="M116.768 188.607L115.69 188.675L116.025 193.399L117.103 193.332L116.768 188.607Z" fill="#82A4D8"/>
<path opacity="0.7" d="M98.9999 188.631H97.9199V193.366H98.9999V188.631Z" fill="white"/>
<path opacity="0.7" d="M116.768 188.607L115.69 188.675L116.025 193.399L117.103 193.332L116.768 188.607Z" fill="white"/>
<path d="M110.7 126.581C110.7 127.079 110.49 127.52 110.13 127.52C109.77 127.52 109.46 127.154 109.41 126.656C109.36 126.158 109.63 125.717 109.98 125.717C110.33 125.717 110.66 126.083 110.7 126.581Z" fill="#2E353A"/>
<path d="M108 125.087C107.946 125.086 107.894 125.07 107.85 125.04C107.826 125.019 107.807 124.994 107.794 124.965C107.781 124.937 107.774 124.907 107.774 124.876C107.774 124.845 107.781 124.815 107.794 124.786C107.807 124.758 107.826 124.733 107.85 124.711C108.219 124.311 108.682 123.998 109.203 123.795C109.724 123.593 110.288 123.508 110.85 123.547C110.883 123.549 110.915 123.557 110.944 123.571C110.974 123.585 111 123.605 111.021 123.628C111.042 123.652 111.059 123.679 111.069 123.709C111.079 123.738 111.083 123.769 111.08 123.8C111.077 123.831 111.068 123.861 111.053 123.889C111.038 123.916 111.018 123.941 110.993 123.961C110.968 123.981 110.939 123.996 110.907 124.006C110.876 124.015 110.843 124.019 110.81 124.016C110.339 123.983 109.865 124.05 109.426 124.213C108.986 124.376 108.591 124.63 108.27 124.956C108.243 125 108.203 125.036 108.156 125.059C108.108 125.082 108.054 125.092 108 125.087V125.087Z" fill="#2E353A"/>
<path d="M109.41 127.539C110.144 128.645 111.013 129.667 112 130.583C111.778 130.915 111.462 131.184 111.088 131.358C110.714 131.532 110.296 131.605 109.88 131.569L109.41 127.539Z" fill="#A24E3F"/>
<path d="M109.82 133.664C109.746 133.968 109.649 134.266 109.53 134.557C108.903 136.225 107.748 137.674 106.22 138.709C105.833 138.973 105.425 139.208 105 139.414C103.89 139.967 102.662 140.282 101.406 140.334C100.15 140.386 98.898 140.174 97.7401 139.714C96.7113 139.285 95.7808 138.673 95.0001 137.911C91.6501 134.726 91.7301 131.053 91.3601 124.824C91.24 123.489 91.4594 122.146 92.0001 120.907C92.9264 118.819 94.6964 117.162 96.9218 116.299C99.1471 115.436 101.646 115.438 103.87 116.303C110.37 118.793 111.26 128.065 109.82 133.664Z" fill="#9F5B53"/>
<path opacity="0.2" d="M106.22 138.709C105.833 138.973 105.425 139.208 105 139.414C103.89 139.967 102.662 140.282 101.406 140.334C100.15 140.386 98.8979 140.174 97.74 139.714C98.0392 138.965 98.4391 138.255 98.93 137.601C101.423 137.305 103.954 137.69 106.22 138.709V138.709Z" fill="black"/>
<path d="M92.8801 146.779C96.1401 149.597 104.14 148.536 104.14 148.536C104.14 148.536 109.14 147.258 108.14 145.793C105.2 145.332 103.77 144.045 103.14 142.392C102.819 141.369 102.72 140.295 102.85 139.235C102.896 138.646 102.976 138.06 103.09 137.479L93.2001 130.583C94.4901 135.139 96.0801 143.491 92.8801 146.779Z" fill="#9F5B53"/>
<path d="M102 113.617C102 113.617 103.75 112.611 106.75 115.261C109.27 117.497 106.75 119.291 108.25 122.156C109.75 125.021 107.72 127.84 107.72 127.84C107.72 127.84 106.27 130.78 103.72 130.602C103.72 130.602 101.65 132.95 101.98 135.374C102.31 137.798 98.6001 139.724 93.5401 139.658C88.4801 139.592 90.5401 136.633 90.5401 136.633C89.0621 135.048 87.8667 133.25 87.0001 131.306C85.9775 128.946 85.4872 126.413 85.5601 123.866C85.5136 122.543 85.7479 121.225 86.2492 119.987C86.7505 118.75 87.5089 117.619 88.4801 116.66C91.8601 113.091 99.9001 111.296 102 113.617Z" fill="#263238"/>
<path d="M102.45 129.24C102.57 129.835 102.831 130.397 103.214 130.885C103.596 131.373 104.091 131.773 104.66 132.058C106.01 132.593 106.89 130.808 106.66 128.939C106.47 127.276 105.56 124.937 104.11 125.247C102.66 125.557 102 127.567 102.45 129.24Z" fill="#9F5B53"/>
<path d="M92.0801 146.197L93.5401 142.655C93.5401 142.655 103.39 140.87 106.73 145.473C110.07 150.077 92.0801 146.197 92.0801 146.197Z" fill="#82A4D8"/>
<path opacity="0.6" d="M92.0801 146.197L93.5401 142.655C93.5401 142.655 103.39 140.87 106.73 145.473C110.07 150.077 92.0801 146.197 92.0801 146.197Z" fill="white"/>
<path d="M86.29 190.172C86.29 190.172 87.67 178.579 85.63 160.955C85.1 156.418 84.35 151.486 83.3 146.244C83.3 146.244 102.63 143.04 116.12 146.244C116.12 146.244 116.68 148.386 117.43 152.04C117.56 152.632 117.69 153.252 117.83 153.919C118.19 155.732 118.58 157.827 118.98 160.129L119.04 160.486C119.47 162.966 120.04 165.812 120.59 168.894C121.995 175.783 122.864 182.76 123.19 189.768L86.29 190.172Z" fill="#263238"/>
<path opacity="0.2" d="M120.6 168.903C114.23 163.351 114.94 151.993 114.94 151.993L117.83 153.872C118.19 155.685 118.58 157.78 118.98 160.082L119.04 160.439C119.48 162.975 120 165.822 120.6 168.903Z" fill="black"/>
<path d="M116.12 146.244C121.12 148.216 131.36 162.938 131.54 165.972C131.72 169.006 129.29 170.171 124.7 167.531C120.11 164.892 115.64 155.319 115 152.444C114.36 149.569 116.12 146.244 116.12 146.244Z" fill="#263238"/>
</svg>
