<svg width="512" height="512" viewBox="0 0 512 512" fill="none" xmlns="http://www.w3.org/2000/svg">
<g clip-path="url(#clip0_302_2)">
<path d="M319.9 233.7C312.3 225.7 299.7 225.3 291.6 232.9L254 268.4L216.3 232.8C208.3 225.2 195.6 225.6 188 233.6C180.4 241.6 180.8 254.3 188.8 261.9L224.8 295.9L188.8 329.9C180.8 337.5 180.4 350.1 188 358.2C191.9 362.4 197.2 364.5 202.5 364.5C207.4 364.5 212.4 362.7 216.2 359L253.9 323.4L291.6 359C295.5 362.6 300.4 364.5 305.3 364.5C310.6 364.5 315.9 362.4 319.8 358.2C327.4 350.2 327 337.5 319 329.9L283 295.9L319 261.9C327.2 254.3 327.5 241.7 319.9 233.7Z" fill="url(#paint0_linear_302_2)"/>
<path d="M506 421.7L300.5 34.9999C290.5 16.0999 272.5 4.8999 252.3 4.8999H251.8C231.5 5.0999 213.5 16.5999 203.7 35.7999L7.30001 422.1C-2.59999 441.6 -1.69999 465.3 9.70001 483.9C20 500.7 37.3 510.6 56 510.6L458 511H458.1C477 511 494.3 500.9 504.5 484C515.8 465.1 516.4 441.3 506 421.7ZM470.2 463.4C468.5 466.3 464.6 471 458.1 471L56.1 470.6C49.6 470.6 45.7 465.8 43.9 462.9C40.6 457.5 38.7 448.8 43 440.1L239.4 53.9999C242.3 48.2999 247 44.9999 252.2 44.9999H252.3C257.5 44.9999 262.2 48.1999 265.2 53.7999L470.7 440.4C475.3 449.1 473.4 457.9 470.2 463.4Z" fill="url(#paint1_linear_302_2)"/>
</g>
<defs>
<linearGradient id="paint0_linear_302_2" x1="16.1019" y1="295.921" x2="474.663" y2="295.921" gradientUnits="userSpaceOnUse">
<stop offset="1" stop-color="white"/>
</linearGradient>
<linearGradient id="paint1_linear_302_2" x1="16.102" y1="257.95" x2="474.663" y2="257.95" gradientUnits="userSpaceOnUse">
<stop stop-color="#FBFF4B"/>
</linearGradient>
<clipPath id="clip0_302_2">
<rect width="512" height="512" fill="white"/>
</clipPath>
</defs>
</svg>
